Involve-BoldOblique.ufo
<glyph name="quotedbl" format="2">
	<unicode hex="0022"/>
	<advance width="337"/>
	<outline>
		<contour>
			<point x="159" y="513" type="line"/>
			<point x="235" y="513" type="line"/>
			<point x="277" y="739" type="line"/>
			<point x="201" y="739" type="line"/>
		</contour>
		<contour>
			<point x="292" y="513" type="line"/>
			<point x="368" y="513" type="line"/>
			<point x="410" y="739" type="line"/>
			<point x="334" y="739" type="line"/>
		</contour>
	</outline>
</glyph>
<glyph name="dollar" format="2">
  <advance width="560"/>
  <unicode hex="0024"/>
  <outline>
    <contour>
      <point x="207" y="-86" type="line"/>
      <point x="334" y="-86" type="line"/>
      <point x="359" y="46" type="line"/>
      <point x="457" y="72"/>
      <point x="525" y="148"/>
      <point x="544" y="251" type="curve" smooth="yes"/>
      <point x="547" y="268"/>
      <point x="548" y="285"/>
      <point x="548" y="300" type="curve" smooth="yes"/>
      <point x="548" y="340"/>
      <point x="537" y="373"/>
      <point x="517" y="395" type="curve" smooth="yes"/>
      <point x="499" y="415"/>
      <point x="477" y="428"/>
      <point x="421" y="449" type="curve" smooth="yes"/>
      <point x="373" y="468"/>
      <point x="358" y="476"/>
      <point x="344" y="489" type="curve"/>
      <point x="331" y="499"/>
      <point x="324" y="515"/>
      <point x="324" y="533" type="curve" smooth="yes"/>
      <point x="324" y="538"/>
      <point x="325" y="544"/>
      <point x="326" y="549" type="curve" smooth="yes"/>
      <point x="333" y="587"/>
      <point x="362" y="613"/>
      <point x="397" y="613" type="curve" smooth="yes"/>
      <point x="431" y="613"/>
      <point x="449" y="591"/>
      <point x="450" y="551" type="curve"/>
      <point x="576" y="551" type="line"/>
      <point x="578" y="562"/>
      <point x="579" y="573"/>
      <point x="579" y="583" type="curve" smooth="yes"/>
      <point x="579" y="654"/>
      <point x="541" y="712"/>
      <point x="484" y="723" type="curve"/>
      <point x="509" y="856" type="line"/>
      <point x="382" y="856" type="line"/>
      <point x="357" y="723" type="line"/>
      <point x="272" y="705"/>
      <point x="209" y="636"/>
      <point x="191" y="541" type="curve" smooth="yes"/>
      <point x="188" y="527"/>
      <point x="187" y="513"/>
      <point x="187" y="500" type="curve" smooth="yes"/>
      <point x="187" y="435"/>
      <point x="221" y="388"/>
      <point x="287" y="361" type="curve" smooth="yes"/>
      <point x="368" y="328"/>
      <point x="368" y="328"/>
      <point x="384" y="316" type="curve" smooth="yes"/>
      <point x="403" y="302"/>
      <point x="412" y="286"/>
      <point x="412" y="265" type="curve" smooth="yes"/>
      <point x="412" y="259"/>
      <point x="411" y="253"/>
      <point x="410" y="246" type="curve"/>
      <point x="401" y="198"/>
      <point x="358" y="163"/>
      <point x="310" y="163" type="curve" smooth="yes"/>
      <point x="267" y="163"/>
      <point x="241" y="189"/>
      <point x="241" y="233" type="curve" smooth="yes"/>
      <point x="241" y="238"/>
      <point x="241" y="244"/>
      <point x="242" y="249" type="curve"/>
      <point x="220.532" y="249"/>
      <point x="131.972" y="249"/>
      <point x="108" y="249" type="curve"/>
      <point x="106" y="236" type="line" smooth="yes"/>
      <point x="104" y="224"/>
      <point x="103" y="213"/>
      <point x="103" y="202" type="curve" smooth="yes"/>
      <point x="103" y="129"/>
      <point x="150" y="70"/>
      <point x="232" y="46" type="curve"/>
    </contour>
  </outline>
</glyph>
<glyph name="percent" format="2">
	<unicode hex="0025"/>
	<advance width="860"/>
	<outline>
		<contour>
			<point x="225" y="0" type="line"/>
			<point x="327" y="0" type="line"/>
			<point x="770" y="739" type="line"/>
			<point x="667" y="739" type="line"/>
		</contour>
		<contour>
			<point x="503" y="134" type="curve" smooth="yes"/>
			<point x="503" y="50"/>
			<point x="565" y="-13"/>
			<point x="654" y="-13" type="curve" smooth="yes"/>
			<point x="754" y="-13"/>
			<point x="849" y="68"/>
			<point x="868" y="168" type="curve" smooth="yes"/>
			<point x="870" y="179"/>
			<point x="871" y="190"/>
			<point x="871" y="200" type="curve" smooth="yes"/>
			<point x="871" y="283"/>
			<point x="808" y="348"/>
			<point x="721" y="348" type="curve" smooth="yes"/>
			<point x="619" y="348"/>
			<point x="525" y="269"/>
			<point x="506" y="167" type="curve" smooth="yes"/>
			<point x="504" y="156"/>
			<point x="503" y="145"/>
		</contour>
		<contour>
			<point x="673" y="94" type="curve" smooth="yes"/>
			<point x="638" y="94"/>
			<point x="613" y="120"/>
			<point x="613" y="154" type="curve" smooth="yes"/>
			<point x="613" y="158"/>
			<point x="613" y="163"/>
			<point x="614" y="168" type="curve" smooth="yes"/>
			<point x="622" y="209"/>
			<point x="660" y="242"/>
			<point x="700" y="242" type="curve" smooth="yes"/>
			<point x="737" y="242"/>
			<point x="762" y="216"/>
			<point x="762" y="182" type="curve" smooth="yes"/>
			<point x="762" y="178"/>
			<point x="762" y="173"/>
			<point x="761" y="168" type="curve" smooth="yes"/>
			<point x="753" y="127"/>
			<point x="714" y="94"/>
		</contour>
		<contour>
			<point x="126" y="538" type="curve" smooth="yes"/>
			<point x="126" y="454"/>
			<point x="187" y="391"/>
			<point x="276" y="391" type="curve" smooth="yes"/>
			<point x="376" y="391"/>
			<point x="472" y="472"/>
			<point x="491" y="572" type="curve" smooth="yes"/>
			<point x="493" y="583"/>
			<point x="494" y="594"/>
			<point x="494" y="604" type="curve" smooth="yes"/>
			<point x="494" y="687"/>
			<point x="431" y="752"/>
			<point x="344" y="752" type="curve" smooth="yes"/>
			<point x="242" y="752"/>
			<point x="148" y="673"/>
			<point x="129" y="571" type="curve" smooth="yes"/>
			<point x="127" y="560"/>
			<point x="126" y="549"/>
		</contour>
		<contour>
			<point x="296" y="498" type="curve" smooth="yes"/>
			<point x="261" y="498"/>
			<point x="236" y="524"/>
			<point x="236" y="558" type="curve" smooth="yes"/>
			<point x="236" y="562"/>
			<point x="236" y="567"/>
			<point x="237" y="572" type="curve" smooth="yes"/>
			<point x="245" y="613"/>
			<point x="283" y="646"/>
			<point x="323" y="646" type="curve" smooth="yes"/>
			<point x="360" y="646"/>
			<point x="385" y="620"/>
			<point x="385" y="586" type="curve" smooth="yes"/>
			<point x="385" y="582"/>
			<point x="385" y="577"/>
			<point x="384" y="572" type="curve" smooth="yes"/>
			<point x="376" y="531"/>
			<point x="337" y="498"/>
		</contour>
	</outline>
</glyph>
<glyph name="parenleft" format="2">
	<unicode hex="0028"/>
	<advance width="357"/>
	<outline>
		<contour>
			<point x="312" y="8" type="line"/>
			<point x="254" y="51"/>
			<point x="220" y="138"/>
			<point x="220" y="231" type="curve" smooth="yes"/>
			<point x="220" y="376"/>
			<point x="302" y="515"/>
			<point x="421" y="595" type="curve"/>
			<point x="448" y="739" type="line"/>
			<point x="235" y="653"/>
			<point x="83" y="437"/>
			<point x="83" y="207" type="curve" smooth="yes"/>
			<point x="83" y="67"/>
			<point x="146" y="-86"/>
			<point x="286" y="-137" type="curve"/>
		</contour>
	</outline>
</glyph>
<glyph name="plus" format="2">
	<unicode hex="002B"/>
	<advance width="600"/>
	<outline>
		<contour>
			<point x="262" y="117" type="line"/>
			<point x="382" y="117" type="line"/>
			<point x="418" y="312" type="line"/>
			<point x="610" y="312" type="line"/>
			<point x="632" y="430" type="line"/>
			<point x="440" y="430" type="line"/>
			<point x="476" y="625" type="line"/>
			<point x="356" y="625" type="line"/>
			<point x="320" y="430" type="line"/>
			<point x="128" y="430" type="line"/>
			<point x="106" y="312" type="line"/>
			<point x="298" y="312" type="line"/>
		</contour>
	</outline>
</glyph>
<glyph name="comma" format="2">
  <advance width="281"/>
  <unicode hex="002C"/>
  <outline>
    <contour>
      <point x="74" y="0" type="line"/>
      <point x="132" y="0" type="line"/>
      <point x="132" y="-46"/>
      <point x="104" y="-65"/>
      <point x="60" y="-73" type="curve"/>
      <point x="48" y="-140" type="line"/>
      <point x="131" y="-140"/>
      <point x="191" y="-90"/>
      <point x="206" y="-7" type="curve" smooth="yes"/>
      <point x="231" y="128" type="line"/>
      <point x="98" y="128" type="line"/>
    </contour>
  </outline>
</glyph>
<glyph name="one" format="2">
	<unicode hex="0031"/>
	<advance width="560"/>
	<outline>
		<contour>
			<point x="238" y="0" type="line"/>
			<point x="371" y="0" type="line"/>
			<point x="508" y="739" type="line"/>
			<point x="282" y="739" type="line"/>
			<point x="259" y="614" type="line"/>
			<point x="352" y="614" type="line"/>
		</contour>
	</outline>
</glyph>
<glyph name="two" format="2">
	<unicode hex="0032"/>
	<advance width="560"/>
	<outline>
		<contour>
			<point x="41" y="0" type="line"/>
			<point x="519" y="0" type="line"/>
			<point x="542" y="125" type="line"/>
			<point x="251" y="125" type="line"/>
			<point x="428" y="262" type="line" smooth="yes"/>
			<point x="530" y="341"/>
			<point x="621" y="422"/>
			<point x="621" y="560" type="curve" smooth="yes"/>
			<point x="621" y="673"/>
			<point x="541" y="752"/>
			<point x="420" y="752" type="curve" smooth="yes"/>
			<point x="256" y="752"/>
			<point x="154" y="634"/>
			<point x="126" y="484" type="curve"/>
			<point x="257" y="484" type="line"/>
			<point x="273" y="572"/>
			<point x="330" y="630"/>
			<point x="399" y="630" type="curve" smooth="yes"/>
			<point x="452" y="630"/>
			<point x="487" y="592"/>
			<point x="487" y="539" type="curve" smooth="yes"/>
			<point x="487" y="465"/>
			<point x="425" y="408"/>
			<point x="372" y="366" type="curve" smooth="yes"/>
			<point x="63" y="117" type="line"/>
		</contour>
	</outline>
</glyph>
<glyph name="three" format="2">
  <advance width="560"/>
  <unicode hex="0033"/>
  <outline>
    <contour>
      <point x="64" y="224" type="line"/>
      <point x="62" y="212"/>
      <point x="61" y="200"/>
      <point x="61" y="189" type="curve" smooth="yes"/>
      <point x="61" y="69"/>
      <point x="145" y="-13"/>
      <point x="275" y="-13" type="curve" smooth="yes"/>
      <point x="438" y="-13"/>
      <point x="574" y="125"/>
      <point x="574" y="287" type="curve" smooth="yes"/>
      <point x="574" y="352"/>
      <point x="546" y="398"/>
      <point x="489" y="426" type="curve"/>
      <point x="549" y="464"/>
      <point x="578" y="524"/>
      <point x="578" y="593" type="curve" smooth="yes"/>
      <point x="578" y="686"/>
      <point x="512" y="752"/>
      <point x="412" y="752" type="curve" smooth="yes"/>
      <point x="295" y="752"/>
      <point x="209" y="672"/>
      <point x="181" y="563" type="curve"/>
      <point x="316" y="563" type="line"/>
      <point x="331" y="609"/>
      <point x="354" y="630"/>
      <point x="391" y="630" type="curve" smooth="yes"/>
      <point x="424" y="630"/>
      <point x="444" y="608"/>
      <point x="444" y="576" type="curve" smooth="yes"/>
      <point x="444" y="504"/>
      <point x="382" y="484"/>
      <point x="323" y="484" type="curve" smooth="yes"/>
      <point x="315" y="484" type="line"/>
      <point x="291" y="356" type="line"/>
      <point x="313" y="356" type="line" smooth="yes"/>
      <point x="392" y="356"/>
      <point x="437" y="318"/>
      <point x="437" y="257" type="curve" smooth="yes"/>
      <point x="437" y="180"/>
      <point x="375" y="109"/>
      <point x="296" y="109" type="curve" smooth="yes"/>
      <point x="234" y="109"/>
      <point x="197" y="150"/>
      <point x="197" y="203" type="curve" smooth="yes"/>
      <point x="197" y="208"/>
      <point x="198" y="217"/>
      <point x="199" y="224" type="curve"/>
    </contour>
  </outline>
</glyph>
<glyph name="seven" format="2">
	<unicode hex="0037"/>
	<advance width="560"/>
	<outline>
		<contour>
			<point x="80" y="0" type="line"/>
			<point x="230" y="0" type="line"/>
			<point x="614" y="614" type="line"/>
			<point x="637" y="739" type="line"/>
			<point x="202" y="739" type="line"/>
			<point x="179" y="614" type="line"/>
			<point x="474" y="614" type="line"/>
		</contour>
	</outline>
</glyph>
<glyph name="eight" format="2">
  <advance width="560"/>
  <unicode hex="0038"/>
  <outline>
    <contour>
      <point x="72" y="184" type="curve" smooth="yes"/>
      <point x="72" y="70"/>
      <point x="155" y="-13"/>
      <point x="279" y="-13" type="curve" smooth="yes"/>
      <point x="435" y="-13"/>
      <point x="573" y="121"/>
      <point x="573" y="277" type="curve" smooth="yes"/>
      <point x="573" y="344"/>
      <point x="551" y="376"/>
      <point x="498" y="411" type="curve"/>
      <point x="558" y="453"/>
      <point x="590" y="519"/>
      <point x="590" y="591" type="curve" smooth="yes"/>
      <point x="590" y="685"/>
      <point x="523" y="752"/>
      <point x="421" y="752" type="curve" smooth="yes"/>
      <point x="294" y="752"/>
      <point x="177" y="638"/>
      <point x="177" y="511" type="curve" smooth="yes"/>
      <point x="177" y="476"/>
      <point x="188" y="448"/>
      <point x="216" y="411" type="curve"/>
      <point x="126" y="367"/>
      <point x="72" y="284"/>
    </contour>
    <contour>
      <point x="207" y="203" type="curve" smooth="yes"/>
      <point x="207" y="273"/>
      <point x="271" y="341"/>
      <point x="342" y="341" type="curve" smooth="yes"/>
      <point x="398" y="341"/>
      <point x="437" y="302"/>
      <point x="437" y="248" type="curve" smooth="yes"/>
      <point x="437" y="176"/>
      <point x="375" y="109"/>
      <point x="302" y="109" type="curve" smooth="yes"/>
      <point x="245" y="109"/>
      <point x="207" y="149"/>
    </contour>
    <contour>
      <point x="369" y="469" type="curve" smooth="yes"/>
      <point x="332" y="469"/>
      <point x="306" y="496"/>
      <point x="306" y="533" type="curve" smooth="yes"/>
      <point x="306" y="581"/>
      <point x="348" y="630"/>
      <point x="398" y="630" type="curve" smooth="yes"/>
      <point x="436" y="630"/>
      <point x="461" y="604"/>
      <point x="461" y="567" type="curve" smooth="yes"/>
      <point x="461" y="519"/>
      <point x="418" y="469"/>
    </contour>
  </outline>
</glyph>
<glyph name="nine" format="2">
	<unicode hex="0039"/>
	<advance width="560"/>
	<outline>
		<contour>
			<point x="110" y="0" type="line"/>
			<point x="269" y="0" type="line"/>
			<point x="516" y="290" type="line" smooth="yes"/>
			<point x="580" y="365"/>
			<point x="632" y="446"/>
			<point x="632" y="547" type="curve" smooth="yes"/>
			<point x="632" y="667"/>
			<point x="546" y="752"/>
			<point x="415" y="752" type="curve" smooth="yes"/>
			<point x="243" y="752"/>
			<point x="110" y="600"/>
			<point x="110" y="433" type="curve" smooth="yes"/>
			<point x="110" y="326"/>
			<point x="175" y="251"/>
			<point x="275" y="251" type="curve" smooth="yes"/>
			<point x="298" y="251"/>
			<point x="311" y="254"/>
			<point x="337" y="263" type="curve"/>
		</contour>
		<contour>
			<point x="349" y="369" type="curve" smooth="yes"/>
			<point x="287" y="369"/>
			<point x="248" y="410"/>
			<point x="248" y="471" type="curve" smooth="yes"/>
			<point x="248" y="550"/>
			<point x="307" y="630"/>
			<point x="391" y="630" type="curve" smooth="yes"/>
			<point x="457" y="630"/>
			<point x="497" y="590"/>
			<point x="497" y="529" type="curve" smooth="yes"/>
			<point x="497" y="447"/>
			<point x="436" y="369"/>
		</contour>
	</outline>
</glyph>
<glyph name="colon" format="2">
	<unicode hex="003A"/>
	<advance width="281"/>
	<outline>
		<contour>
			<point x="74" y="0" type="line"/>
			<point x="207" y="0" type="line"/>
			<point x="231" y="128" type="line"/>
			<point x="98" y="128" type="line"/>
		</contour>
		<contour>
			<point x="142" y="369" type="line"/>
			<point x="275" y="369" type="line"/>
			<point x="300" y="502" type="line"/>
			<point x="167" y="502" type="line"/>
		</contour>
	</outline>
</glyph>
<glyph name="semicolon" format="2">
	<unicode hex="003B"/>
	<advance width="281"/>
	<outline>
		<component base="comma" xOffset="10"/>
		<contour>
			<point x="142" y="369" type="line"/>
			<point x="275" y="369" type="line"/>
			<point x="300" y="502" type="line"/>
			<point x="167" y="502" type="line"/>
		</contour>
	</outline>
</glyph>
<glyph name="less" format="2">
	<unicode hex="003C"/>
	<advance width="600"/>
	<outline>
		<contour>
			<point x="92" y="258" type="line"/>
			<point x="559" y="33" type="line"/>
			<point x="581" y="149" type="line"/>
			<point x="269" y="308" type="line"/>
			<point x="639" y="465" type="line"/>
			<point x="661" y="582" type="line"/>
			<point x="110" y="356" type="line"/>
		</contour>
	</outline>
</glyph>
<glyph name="question" format="2">
	<unicode hex="003F"/>
	<advance width="519"/>
	<outline>
		<contour>
			<point x="352" y="187" type="line"/>
			<point x="368" y="274"/>
			<point x="382" y="296"/>
			<point x="446" y="344" type="curve" smooth="yes"/>
			<point x="531" y="407"/>
			<point x="585" y="461"/>
			<point x="585" y="570" type="curve" smooth="yes"/>
			<point x="585" y="677"/>
			<point x="511" y="752"/>
			<point x="398" y="752" type="curve" smooth="yes"/>
			<point x="256" y="752"/>
			<point x="161" y="649"/>
			<point x="127" y="520" type="curve"/>
			<point x="260" y="520" type="line"/>
			<point x="282" y="588"/>
			<point x="317" y="620"/>
			<point x="371" y="620" type="curve" smooth="yes"/>
			<point x="419" y="620"/>
			<point x="450" y="590"/>
			<point x="450" y="546" type="curve" smooth="yes"/>
			<point x="450" y="501"/>
			<point x="423" y="467"/>
			<point x="388" y="442" type="curve" smooth="yes"/>
			<point x="273" y="360"/>
			<point x="242" y="311"/>
			<point x="219" y="187" type="curve"/>
		</contour>
		<contour>
			<point x="184" y="0" type="line"/>
			<point x="317" y="0" type="line"/>
			<point x="341" y="128" type="line"/>
			<point x="208" y="128" type="line"/>
		</contour>
	</outline>
</glyph>
<glyph name="B" format="2">
	<unicode hex="0042"/>
	<advance width="587"/>
	<outline>
		<contour>
			<point x="71" y="0" type="line"/>
			<point x="268" y="0" type="line" smooth="yes"/>
			<point x="468" y="0"/>
			<point x="596" y="104"/>
			<point x="596" y="266" type="curve" smooth="yes"/>
			<point x="596" y="335"/>
			<point x="570" y="372"/>
			<point x="500" y="403" type="curve"/>
			<point x="574" y="438"/>
			<point x="611" y="498"/>
			<point x="611" y="582" type="curve" smooth="yes"/>
			<point x="611" y="692"/>
			<point x="536" y="739"/>
			<point x="360" y="739" type="curve" smooth="yes"/>
			<point x="208" y="739" type="line"/>
		</contour>
		<contour>
			<point x="232" y="131" type="line"/>
			<point x="267" y="320" type="line"/>
			<point x="332" y="320" type="line" smooth="yes"/>
			<point x="416" y="320"/>
			<point x="457" y="295"/>
			<point x="457" y="245" type="curve" smooth="yes"/>
			<point x="457" y="170"/>
			<point x="404" y="131"/>
			<point x="300" y="131" type="curve" smooth="yes"/>
		</contour>
		<contour>
			<point x="292" y="454" type="line"/>
			<point x="320" y="605" type="line"/>
			<point x="376" y="605" type="line" smooth="yes"/>
			<point x="439" y="605"/>
			<point x="470" y="586"/>
			<point x="470" y="547" type="curve" smooth="yes"/>
			<point x="470" y="486"/>
			<point x="424" y="454"/>
			<point x="336" y="454" type="curve" smooth="yes"/>
		</contour>
	</outline>
</glyph>
<glyph name="G" format="2">
	<unicode hex="0047"/>
	<advance width="857"/>
	<outline>
		<contour>
			<point x="387" y="249" type="line"/>
			<point x="693" y="249" type="line"/>
			<point x="638" y="167"/>
			<point x="550" y="119"/>
			<point x="452" y="119" type="curve" smooth="yes"/>
			<point x="324" y="119"/>
			<point x="238" y="203"/>
			<point x="238" y="321" type="curve" smooth="yes"/>
			<point x="238" y="482"/>
			<point x="377" y="620"/>
			<point x="537" y="620" type="curve" smooth="yes"/>
			<point x="623" y="620"/>
			<point x="688" y="586"/>
			<point x="722" y="522" type="curve"/>
			<point x="883" y="522" type="line"/>
			<point x="860" y="656"/>
			<point x="725" y="752"/>
			<point x="564" y="752" type="curve" smooth="yes"/>
			<point x="324" y="752"/>
			<point x="98" y="543"/>
			<point x="98" y="300" type="curve" smooth="yes"/>
			<point x="98" y="119"/>
			<point x="235" y="-13"/>
			<point x="436" y="-13" type="curve" smooth="yes"/>
			<point x="660" y="-13"/>
			<point x="857" y="157"/>
			<point x="894" y="377" type="curve"/>
			<point x="411" y="377" type="line"/>
		</contour>
	</outline>
</glyph>
<glyph name="J" format="2">
	<unicode hex="004A"/>
	<advance width="494"/>
	<outline>
		<contour>
			<point x="50" y="175" type="line"/>
			<point x="48" y="161"/>
			<point x="48" y="150"/>
			<point x="48" y="139" type="curve" smooth="yes"/>
			<point x="48" y="43"/>
			<point x="130" y="-13"/>
			<point x="221" y="-13" type="curve" smooth="yes"/>
			<point x="345" y="-13"/>
			<point x="436" y="73"/>
			<point x="462" y="212" type="curve" smooth="yes"/>
			<point x="560" y="739" type="line"/>
			<point x="423" y="739" type="line"/>
			<point x="326" y="216" type="line" smooth="yes"/>
			<point x="314" y="151"/>
			<point x="286" y="119"/>
			<point x="242" y="119" type="curve" smooth="yes"/>
			<point x="212" y="119"/>
			<point x="186" y="133"/>
			<point x="186" y="163" type="curve" smooth="yes"/>
			<point x="186" y="167"/>
			<point x="186" y="171"/>
			<point x="187" y="175" type="curve"/>
		</contour>
	</outline>
</glyph>
<glyph name="L" format="2">
	<unicode hex="004C"/>
	<advance width="454"/>
	<outline>
		<contour>
			<point x="71" y="0" type="line"/>
			<point x="434" y="0" type="line"/>
			<point x="458" y="131" type="line"/>
			<point x="232" y="131" type="line"/>
			<point x="345" y="739" type="line"/>
			<point x="208" y="739" type="line"/>
		</contour>
	</outline>
</glyph>
<glyph name="O" format="2">
	<unicode hex="004F"/>
	<advance width="842"/>
	<outline>
		<contour>
			<point x="98" y="298" type="curve" smooth="yes"/>
			<point x="98" y="119"/>
			<point x="231" y="-13"/>
			<point x="423" y="-13" type="curve" smooth="yes"/>
			<point x="682" y="-13"/>
			<point x="881" y="182"/>
			<point x="881" y="441" type="curve" smooth="yes"/>
			<point x="881" y="618"/>
			<point x="752" y="752"/>
			<point x="566" y="752" type="curve" smooth="yes"/>
			<point x="299" y="752"/>
			<point x="98" y="566"/>
		</contour>
		<contour>
			<point x="238" y="322" type="curve" smooth="yes"/>
			<point x="238" y="491"/>
			<point x="364" y="620"/>
			<point x="533" y="620" type="curve" smooth="yes"/>
			<point x="659" y="620"/>
			<point x="741" y="537"/>
			<point x="741" y="419" type="curve" smooth="yes"/>
			<point x="741" y="250"/>
			<point x="617" y="119"/>
			<point x="446" y="119" type="curve" smooth="yes"/>
			<point x="322" y="119"/>
			<point x="238" y="205"/>
		</contour>
	</outline>
</glyph>
<glyph name="P" format="2">
	<unicode hex="0050"/>
	<advance width="573"/>
	<outline>
		<contour>
			<point x="71" y="0" type="line"/>
			<point x="208" y="0" type="line"/>
			<point x="260" y="281" type="line"/>
			<point x="304" y="281" type="line" smooth="yes"/>
			<point x="405" y="281"/>
			<point x="454" y="289"/>
			<point x="498" y="311" type="curve" smooth="yes"/>
			<point x="569" y="347"/>
			<point x="622" y="423"/>
			<point x="638" y="511" type="curve" smooth="yes"/>
			<point x="641" y="529"/>
			<point x="643" y="546"/>
			<point x="643" y="562" type="curve" smooth="yes"/>
			<point x="643" y="622"/>
			<point x="621" y="670"/>
			<point x="579" y="701" type="curve" smooth="yes"/>
			<point x="540" y="729"/>
			<point x="492" y="739"/>
			<point x="391" y="739" type="curve" smooth="yes"/>
			<point x="208" y="739" type="line"/>
		</contour>
		<contour>
			<point x="284" y="412" type="line"/>
			<point x="321" y="608" type="line"/>
			<point x="367" y="608" type="line" smooth="yes"/>
			<point x="412" y="608"/>
			<point x="432" y="606"/>
			<point x="452" y="601" type="curve"/>
			<point x="484" y="592"/>
			<point x="501" y="566"/>
			<point x="501" y="531" type="curve" smooth="yes"/>
			<point x="501" y="524"/>
			<point x="500" y="516"/>
			<point x="499" y="508" type="curve"/>
			<point x="491" y="466"/>
			<point x="461" y="433"/>
			<point x="420" y="422" type="curve"/>
			<point x="397" y="415"/>
			<point x="364" y="412"/>
			<point x="324" y="412" type="curve" smooth="yes"/>
		</contour>
	</outline>
</glyph>
<glyph name="Q" format="2">
  <advance width="864"/>
  <unicode hex="0051"/>
  <outline>
    <contour>
      <point x="854" y="110" type="line"/>
      <point x="841" y="108"/>
      <point x="835" y="107"/>
      <point x="826" y="107" type="curve" smooth="yes"/>
      <point x="802" y="107"/>
      <point x="784" y="113"/>
      <point x="756" y="129" type="curve"/>
      <point x="848" y="209"/>
      <point x="896" y="321"/>
      <point x="896" y="442" type="curve" smooth="yes"/>
      <point x="896" y="624"/>
      <point x="766" y="752"/>
      <point x="568" y="752" type="curve" smooth="yes"/>
      <point x="327" y="752"/>
      <point x="98" y="546"/>
      <point x="98" y="301" type="curve" smooth="yes"/>
      <point x="98" y="121"/>
      <point x="236" y="-13"/>
      <point x="435" y="-13" type="curve" smooth="yes"/>
      <point x="509" y="-13"/>
      <point x="589" y="9"/>
      <point x="649" y="45" type="curve"/>
      <point x="704" y="2"/>
      <point x="749" y="-15"/>
      <point x="812" y="-15" type="curve" smooth="yes"/>
      <point x="816" y="-15"/>
      <point x="823" y="-15"/>
      <point x="831" y="-14" type="curve"/>
    </contour>
    <contour>
      <point x="259" y="227" type="curve"/>
      <point x="291" y="233"/>
      <point x="307" y="235"/>
      <point x="332" y="235" type="curve" smooth="yes"/>
      <point x="413" y="235"/>
      <point x="478" y="207"/>
      <point x="551" y="138" type="curve"/>
      <point x="517" y="123"/>
      <point x="496" y="119"/>
      <point x="458" y="119" type="curve" smooth="yes"/>
      <point x="365" y="119"/>
      <point x="302" y="153"/>
    </contour>
    <contour>
      <point x="237" y="334" type="curve"/>
      <point x="246" y="492"/>
      <point x="385" y="620"/>
      <point x="543" y="620" type="curve" smooth="yes"/>
      <point x="671" y="620"/>
      <point x="755" y="536"/>
      <point x="755" y="416" type="curve" smooth="yes"/>
      <point x="755" y="336"/>
      <point x="723" y="257"/>
      <point x="661" y="204" type="curve"/>
      <point x="587" y="293"/>
      <point x="471" y="347"/>
      <point x="353" y="347" type="curve" smooth="yes"/>
      <point x="308" y="347"/>
      <point x="274" y="343"/>
    </contour>
  </outline>
</glyph>
<glyph name="S" format="2">
  <advance width="524"/>
  <unicode hex="0053"/>
  <outline>
    <contour>
      <point x="58" y="211" type="line"/>
      <point x="56" y="197"/>
      <point x="56" y="184"/>
      <point x="56" y="172" type="curve" smooth="yes"/>
      <point x="56" y="56"/>
      <point x="147" y="-13"/>
      <point x="260" y="-13" type="curve" smooth="yes"/>
      <point x="428" y="-13"/>
      <point x="544" y="92"/>
      <point x="544" y="257" type="curve" smooth="yes"/>
      <point x="544" y="361"/>
      <point x="474" y="414"/>
      <point x="389" y="445" type="curve" smooth="yes"/>
      <point x="313" y="473"/>
      <point x="284" y="492"/>
      <point x="284" y="532" type="curve" smooth="yes"/>
      <point x="284" y="583"/>
      <point x="322" y="620"/>
      <point x="375" y="620" type="curve" smooth="yes"/>
      <point x="417" y="620"/>
      <point x="440" y="599"/>
      <point x="440" y="558" type="curve" smooth="yes"/>
      <point x="440" y="554"/>
      <point x="439" y="547"/>
      <point x="438" y="542" type="curve"/>
      <point x="580" y="542" type="line"/>
      <point x="582" y="557"/>
      <point x="583" y="570"/>
      <point x="583" y="583" type="curve" smooth="yes"/>
      <point x="583" y="688"/>
      <point x="504" y="752"/>
      <point x="400" y="752" type="curve" smooth="yes"/>
      <point x="247" y="752"/>
      <point x="143" y="652"/>
      <point x="143" y="502" type="curve" smooth="yes"/>
      <point x="143" y="433"/>
      <point x="200" y="363"/>
      <point x="277" y="336" type="curve" smooth="yes"/>
      <point x="378" y="301"/>
      <point x="403" y="270"/>
      <point x="403" y="221" type="curve" smooth="yes"/>
      <point x="403" y="161"/>
      <point x="355" y="119"/>
      <point x="284" y="119" type="curve" smooth="yes"/>
      <point x="228" y="119"/>
      <point x="199" y="144"/>
      <point x="199" y="196" type="curve" smooth="yes"/>
      <point x="199" y="201"/>
      <point x="200" y="208"/>
      <point x="201" y="211" type="curve"/>
    </contour>
  </outline>
</glyph>
<glyph name="bracketleft" format="2">
  <advance width="313"/>
  <unicode hex="005B"/>
  <outline>
    <contour>
      <point x="278" y="10" type="line"/>
      <point x="227" y="32"/>
      <point x="218" y="59"/>
      <point x="218" y="111" type="curve" smooth="yes"/>
      <point x="218" y="127"/>
      <point x="219" y="145"/>
      <point x="223" y="164" type="curve" smooth="yes"/>
      <point x="271" y="419" type="line" smooth="yes"/>
      <point x="286" y="500"/>
      <point x="306" y="561"/>
      <point x="386" y="592" type="curve"/>
      <point x="413" y="739" type="line"/>
      <point x="259" y="697"/>
      <point x="171" y="607"/>
      <point x="141" y="446" type="curve" smooth="yes"/>
      <point x="93" y="187" type="line" smooth="yes"/>
      <point x="86" y="149"/>
      <point x="82" y="115"/>
      <point x="82" y="85" type="curve" smooth="yes"/>
      <point x="82" y="-29"/>
      <point x="134" y="-110"/>
      <point x="251" y="-137" type="curve"/>
    </contour>
  </outline>
</glyph>
<glyph name="bracketright" format="2">
	<unicode hex="005D"/>
	<advance width="313"/>
	<outline>
		<contour>
			<point x="12" y="-137" type="line"/>
			<point x="166" y="-96"/>
			<point x="254" y="-5"/>
			<point x="284" y="156" type="curve" smooth="yes"/>
			<point x="332" y="415" type="line" smooth="yes"/>
			<point x="339" y="453"/>
			<point x="342" y="487"/>
			<point x="342" y="517" type="curve" smooth="yes"/>
			<point x="342" y="632"/>
			<point x="293" y="712"/>
			<point x="174" y="739" type="curve"/>
			<point x="147" y="592" type="line"/>
			<point x="197" y="570"/>
			<point x="206" y="542"/>
			<point x="206" y="491" type="curve" smooth="yes"/>
			<point x="206" y="475"/>
			<point x="205" y="457"/>
			<point x="201" y="438" type="curve" smooth="yes"/>
			<point x="154" y="183" type="line" smooth="yes"/>
			<point x="139" y="102"/>
			<point x="119" y="41"/>
			<point x="39" y="10" type="curve"/>
		</contour>
	</outline>
</glyph>
<glyph name="underscore" format="2">
	<unicode hex="005F"/>
	<advance width="500"/>
	<outline>
		<contour>
			<point x="-26" y="-138" type="line"/>
			<point x="474" y="-138" type="line"/>
			<point x="491" y="-48" type="line"/>
			<point x="-9" y="-48" type="line"/>
		</contour>
	</outline>
</glyph>
<glyph name="d" format="2">
	<unicode hex="0064"/>
	<advance width="665"/>
	<outline>
		<contour>
			<point x="74" y="219" type="curve" smooth="yes"/>
			<point x="74" y="84"/>
			<point x="166" y="-13"/>
			<point x="304" y="-13" type="curve" smooth="yes"/>
			<point x="379" y="-13"/>
			<point x="437" y="12"/>
			<point x="502" y="72" type="curve"/>
			<point x="489" y="0" type="line"/>
			<point x="611" y="0" type="line"/>
			<point x="748" y="739" type="line"/>
			<point x="615" y="739" type="line"/>
			<point x="572" y="505" type="line"/>
			<point x="541" y="548"/>
			<point x="481" y="574"/>
			<point x="411" y="574" type="curve" smooth="yes"/>
			<point x="228" y="574"/>
			<point x="74" y="397"/>
		</contour>
		<contour>
			<point x="211" y="248" type="curve" smooth="yes"/>
			<point x="211" y="352"/>
			<point x="300" y="452"/>
			<point x="406" y="452" type="curve" smooth="yes"/>
			<point x="490" y="452"/>
			<point x="543" y="397"/>
			<point x="543" y="316" type="curve" smooth="yes"/>
			<point x="543" y="211"/>
			<point x="456" y="109"/>
			<point x="347" y="109" type="curve" smooth="yes"/>
			<point x="266" y="109"/>
			<point x="211" y="168"/>
		</contour>
	</outline>
</glyph>
<glyph name="k" format="2">
	<unicode hex="006B"/>
	<advance width="557"/>
	<outline>
		<contour>
			<point x="54" y="0" type="line"/>
			<point x="187" y="0" type="line"/>
			<point x="205" y="95" type="line"/>
			<point x="280" y="177" type="line"/>
			<point x="376" y="0" type="line"/>
			<point x="555" y="0" type="line"/>
			<point x="377" y="283" type="line"/>
			<point x="626" y="554" type="line"/>
			<point x="467" y="554" type="line"/>
			<point x="241" y="293" type="line"/>
			<point x="324" y="739" type="line"/>
			<point x="191" y="739" type="line"/>
		</contour>
	</outline>
</glyph>
<glyph name="n" format="2">
  <advance width="598"/>
  <unicode hex="006E"/>
  <outline>
    <contour>
      <point x="54" y="0" type="line"/>
      <point x="187" y="0" type="line"/>
      <point x="235" y="261" type="line" smooth="yes"/>
      <point x="251" y="350"/>
      <point x="279" y="445"/>
      <point x="389" y="445" type="curve" smooth="yes"/>
      <point x="448" y="445"/>
      <point x="473" y="413"/>
      <point x="473" y="358" type="curve" smooth="yes"/>
      <point x="473" y="336"/>
      <point x="470" y="308"/>
      <point x="463" y="271" type="curve" smooth="yes"/>
      <point x="413" y="0" type="line"/>
      <point x="546" y="0" type="line"/>
      <point x="601" y="297" type="line" smooth="yes"/>
      <point x="610" y="344"/>
      <point x="614" y="379"/>
      <point x="614" y="407" type="curve" smooth="yes"/>
      <point x="614" y="513"/>
      <point x="543" y="567"/>
      <point x="438" y="567" type="curve" smooth="yes"/>
      <point x="374" y="567"/>
      <point x="328" y="549"/>
      <point x="270" y="501" type="curve"/>
      <point x="280" y="554" type="line"/>
      <point x="157" y="554" type="line"/>
    </contour>
  </outline>
</glyph>
<glyph name="q" format="2">
	<unicode hex="0071"/>
	<advance width="663"/>
	<outline>
		<contour>
			<point x="442" y="-185" type="line"/>
			<point x="575" y="-185" type="line"/>
			<point x="712" y="554" type="line"/>
			<point x="590" y="554" type="line"/>
			<point x="577" y="483" type="line"/>
			<point x="544" y="541"/>
			<point x="493" y="567"/>
			<point x="412" y="567" type="curve" smooth="yes"/>
			<point x="256" y="567"/>
			<point x="110" y="440"/>
			<point x="80" y="279" type="curve" smooth="yes"/>
			<point x="76" y="259"/>
			<point x="74" y="239"/>
			<point x="74" y="220" type="curve" smooth="yes"/>
			<point x="74" y="85"/>
			<point x="167" y="-13"/>
			<point x="307" y="-13" type="curve" smooth="yes"/>
			<point x="375" y="-13"/>
			<point x="434" y="9"/>
			<point x="486" y="53" type="curve"/>
		</contour>
		<contour>
			<point x="210" y="241" type="curve" smooth="yes"/>
			<point x="210" y="252"/>
			<point x="211" y="264"/>
			<point x="213" y="276" type="curve" smooth="yes"/>
			<point x="231" y="371"/>
			<point x="314" y="445"/>
			<point x="404" y="445" type="curve" smooth="yes"/>
			<point x="487" y="445"/>
			<point x="539" y="391"/>
			<point x="539" y="312" type="curve" smooth="yes"/>
			<point x="539" y="300"/>
			<point x="537" y="288"/>
			<point x="535" y="275" type="curve"/>
			<point x="517" y="179"/>
			<point x="436" y="109"/>
			<point x="345" y="109" type="curve" smooth="yes"/>
			<point x="263" y="109"/>
			<point x="210" y="163"/>
		</contour>
	</outline>
</glyph>
<glyph name="r" format="2">
	<unicode hex="0072"/>
	<advance width="330"/>
	<outline>
		<contour>
			<point x="54" y="0" type="line"/>
			<point x="187" y="0" type="line"/>
			<point x="244" y="308" type="line" smooth="yes"/>
			<point x="260" y="394"/>
			<point x="307" y="439"/>
			<point x="387" y="439" type="curve"/>
			<point x="411" y="567" type="line"/>
			<point x="341" y="567"/>
			<point x="315" y="553"/>
			<point x="269" y="500" type="curve"/>
			<point x="279" y="554" type="line"/>
			<point x="157" y="554" type="line"/>
		</contour>
	</outline>
</glyph>
<glyph name="s" format="2">
  <advance width="438"/>
  <unicode hex="0073"/>
  <outline>
    <contour>
      <point x="48" y="176" type="line"/>
      <point x="46" y="163"/>
      <point x="45" y="151"/>
      <point x="45" y="140" type="curve" smooth="yes"/>
      <point x="45" y="56"/>
      <point x="122" y="-13"/>
      <point x="216" y="-13" type="curve" smooth="yes"/>
      <point x="354" y="-13"/>
      <point x="452" y="74"/>
      <point x="452" y="198" type="curve" smooth="yes"/>
      <point x="452" y="263"/>
      <point x="410" y="308"/>
      <point x="325" y="338" type="curve" smooth="yes"/>
      <point x="254" y="363"/>
      <point x="241" y="375"/>
      <point x="241" y="403" type="curve" smooth="yes"/>
      <point x="241" y="428"/>
      <point x="264" y="445"/>
      <point x="296" y="445" type="curve" smooth="yes"/>
      <point x="322" y="445"/>
      <point x="347" y="436"/>
      <point x="347" y="413" type="curve" smooth="yes"/>
      <point x="347" y="408"/>
      <point x="346" y="403"/>
      <point x="345" y="401" type="curve"/>
      <point x="475" y="401" type="line"/>
      <point x="477" y="413"/>
      <point x="478" y="424"/>
      <point x="478" y="434" type="curve" smooth="yes"/>
      <point x="478" y="518"/>
      <point x="403" y="567"/>
      <point x="324" y="567" type="curve" smooth="yes"/>
      <point x="189" y="567"/>
      <point x="105" y="490"/>
      <point x="105" y="384" type="curve" smooth="yes"/>
      <point x="105" y="303"/>
      <point x="143" y="265"/>
      <point x="232" y="234" type="curve" smooth="yes"/>
      <point x="286" y="215"/>
      <point x="314" y="191"/>
      <point x="314" y="164" type="curve" smooth="yes"/>
      <point x="314" y="127"/>
      <point x="285" y="109"/>
      <point x="250" y="109" type="curve" smooth="yes"/>
      <point x="215" y="109"/>
      <point x="180" y="120"/>
      <point x="180" y="160" type="curve" smooth="yes"/>
      <point x="180" y="165"/>
      <point x="180" y="170"/>
      <point x="182" y="176" type="curve"/>
    </contour>
  </outline>
</glyph>
<glyph name="u" format="2">
	<unicode hex="0075"/>
	<advance width="599"/>
	<outline>
		<contour>
			<point x="422" y="0" type="line"/>
			<point x="545" y="0" type="line"/>
			<point x="648" y="554" type="line"/>
			<point x="515" y="554" type="line"/>
			<point x="466" y="293" type="line" smooth="yes"/>
			<point x="449" y="199"/>
			<point x="426" y="109"/>
			<point x="310" y="109" type="curve" smooth="yes"/>
			<point x="252" y="109"/>
			<point x="227" y="142"/>
			<point x="227" y="196" type="curve" smooth="yes"/>
			<point x="227" y="218"/>
			<point x="230" y="246"/>
			<point x="237" y="283" type="curve" smooth="yes"/>
			<point x="288" y="554" type="line"/>
			<point x="155" y="554" type="line"/>
			<point x="100" y="257" type="line" smooth="yes"/>
			<point x="94" y="226"/>
			<point x="90" y="194"/>
			<point x="90" y="164" type="curve" smooth="yes"/>
			<point x="90" y="67"/>
			<point x="130" y="-13"/>
			<point x="261" y="-13" type="curve" smooth="yes"/>
			<point x="328" y="-13"/>
			<point x="372" y="4"/>
			<point x="432" y="53" type="curve"/>
		</contour>
	</outline>
</glyph>
<glyph name="v" format="2">
	<unicode hex="0076"/>
	<advance width="558"/>
	<outline>
		<contour>
			<point x="226" y="0" type="line"/>
			<point x="332" y="0" type="line"/>
			<point x="658" y="554" type="line"/>
			<point x="508" y="554" type="line"/>
			<point x="314" y="187" type="line"/>
			<point x="254" y="554" type="line"/>
			<point x="106" y="554" type="line"/>
		</contour>
	</outline>
</glyph>
<glyph name="y" format="2">
  <advance width="568"/>
  <unicode hex="0079"/>
  <outline>
    <contour>
      <point x="68" y="-185" type="line"/>
      <point x="211" y="-185" type="line"/>
      <point x="668" y="554" type="line"/>
      <point x="515" y="554" type="line"/>
      <point x="314" y="195" type="line"/>
      <point x="258" y="554" type="line"/>
      <point x="106" y="554" type="line"/>
      <point x="216" y="52" type="line"/>
    </contour>
  </outline>
</glyph>
<glyph name="braceright" format="2">
  <advance width="335"/>
  <unicode hex="007D"/>
  <outline>
    <contour>
      <point x="6" y="-128" type="line"/>
      <point x="162" y="-128"/>
      <point x="195" y="-106"/>
      <point x="216" y="10" type="curve" smooth="yes"/>
      <point x="245" y="167" type="line" smooth="yes"/>
      <point x="256" y="227"/>
      <point x="287" y="258"/>
      <point x="344" y="265" type="curve"/>
      <point x="359" y="346" type="line"/>
      <point x="314" y="352"/>
      <point x="293" y="373"/>
      <point x="293" y="414" type="curve" smooth="yes"/>
      <point x="293" y="423"/>
      <point x="294" y="433"/>
      <point x="296" y="444" type="curve" smooth="yes"/>
      <point x="325" y="601" type="line" smooth="yes"/>
      <point x="328" y="617"/>
      <point x="330" y="632"/>
      <point x="330" y="645" type="curve" smooth="yes"/>
      <point x="330" y="712"/>
      <point x="283" y="739"/>
      <point x="167" y="739" type="curve"/>
      <point x="152" y="659" type="line"/>
      <point x="202" y="655"/>
      <point x="219" y="648"/>
      <point x="219" y="613" type="curve" smooth="yes"/>
      <point x="219" y="599"/>
      <point x="216" y="581"/>
      <point x="212" y="557" type="curve" smooth="yes"/>
      <point x="189" y="434" type="line" smooth="yes"/>
      <point x="186" y="417"/>
      <point x="185" y="402"/>
      <point x="185" y="389" type="curve" smooth="yes"/>
      <point x="185" y="342"/>
      <point x="207" y="319"/>
      <point x="256" y="306" type="curve"/>
      <point x="186" y="288"/>
      <point x="156" y="255"/>
      <point x="142" y="177" type="curve" smooth="yes"/>
      <point x="119" y="54" type="line" smooth="yes"/>
      <point x="103" y="-31"/>
      <point x="93" y="-42"/>
      <point x="21" y="-48" type="curve"/>
    </contour>
  </outline>
</glyph>
<glyph name="cent" format="2">
  <advance width="560"/>
  <unicode hex="00A2"/>
  <outline>
    <contour>
      <point x="230" y="39" type="line"/>
      <point x="355" y="39" type="line"/>
      <point x="375" y="148" type="line"/>
      <point x="459" y="169"/>
      <point x="523" y="221"/>
      <point x="573" y="310" type="curve"/>
      <point x="427" y="310" type="line"/>
      <point x="397" y="282"/>
      <point x="369" y="270"/>
      <point x="335" y="270" type="curve" smooth="yes"/>
      <point x="281" y="270"/>
      <point x="245" y="306"/>
      <point x="245" y="357" type="curve" smooth="yes"/>
      <point x="245" y="425"/>
      <point x="302" y="489"/>
      <point x="372" y="489" type="curve" smooth="yes"/>
      <point x="409" y="489"/>
      <point x="441" y="471"/>
      <point x="456" y="443" type="curve"/>
      <point x="598" y="443" type="line"/>
      <point x="595" y="525"/>
      <point x="543" y="590"/>
      <point x="461" y="611" type="curve"/>
      <point x="481" y="715" type="line"/>
      <point x="356" y="715" type="line"/>
      <point x="336" y="611" type="line"/>
      <point x="209" y="579"/>
      <point x="110" y="468"/>
      <point x="110" y="333" type="curve" smooth="yes"/>
      <point x="110" y="241"/>
      <point x="158" y="169"/>
      <point x="250" y="148" type="curve"/>
    </contour>
  </outline>
</glyph>
<glyph name="sterling" format="2">
  <advance width="560"/>
  <unicode hex="00A3"/>
  <outline>
    <contour>
      <point x="41" y="0" type="line"/>
      <point x="301" y="0" type="line" smooth="yes"/>
      <point x="442" y="0"/>
      <point x="606" y="80"/>
      <point x="606" y="244" type="curve" smooth="yes"/>
      <point x="606" y="253"/>
      <point x="605" y="262"/>
      <point x="603" y="274" type="curve"/>
      <point x="471" y="274" type="line"/>
      <point x="473" y="262"/>
      <point x="473" y="252"/>
      <point x="473" y="244" type="curve" smooth="yes"/>
      <point x="473" y="170"/>
      <point x="421" y="125"/>
      <point x="350" y="125" type="curve" smooth="yes"/>
      <point x="343" y="125" type="line"/>
      <point x="360" y="159"/>
      <point x="373" y="196"/>
      <point x="373" y="234" type="curve" smooth="yes"/>
      <point x="373" y="256"/>
      <point x="368" y="279"/>
      <point x="358" y="310" type="curve"/>
      <point x="465" y="310" type="line"/>
      <point x="489" y="435" type="line"/>
      <point x="282" y="435" type="line"/>
      <point x="271" y="451"/>
      <point x="266" y="467"/>
      <point x="266" y="486" type="curve" smooth="yes"/>
      <point x="266" y="571"/>
      <point x="320" y="630"/>
      <point x="398" y="630" type="curve" smooth="yes"/>
      <point x="446" y="630"/>
      <point x="476" y="598"/>
      <point x="479" y="541" type="curve"/>
      <point x="614" y="541" type="line"/>
      <point x="615" y="549"/>
      <point x="615" y="558"/>
      <point x="615" y="566" type="curve" smooth="yes"/>
      <point x="615" y="677"/>
      <point x="538" y="752"/>
      <point x="419" y="752" type="curve" smooth="yes"/>
      <point x="249" y="752"/>
      <point x="133" y="641"/>
      <point x="133" y="478" type="curve" smooth="yes"/>
      <point x="133" y="463"/>
      <point x="135" y="450"/>
      <point x="139" y="435" type="curve"/>
      <point x="81" y="435" type="line"/>
      <point x="57" y="310" type="line"/>
      <point x="199" y="310" type="line"/>
      <point x="226" y="278"/>
      <point x="239" y="252"/>
      <point x="239" y="222" type="curve" smooth="yes"/>
      <point x="239" y="186"/>
      <point x="225" y="153"/>
      <point x="203" y="125" type="curve"/>
      <point x="64" y="125" type="line"/>
    </contour>
  </outline>
</glyph>
<glyph name="section" format="2">
	<unicode hex="00A7"/>
	<advance width="560"/>
	<outline>
		<contour>
			<point x="65" y="55" type="line"/>
			<point x="64" y="42"/>
			<point x="63" y="29"/>
			<point x="63" y="16" type="curve" smooth="yes"/>
			<point x="63" y="-96"/>
			<point x="146" y="-157"/>
			<point x="255" y="-157" type="curve" smooth="yes"/>
			<point x="383" y="-157"/>
			<point x="508" y="-70"/>
			<point x="508" y="66" type="curve" smooth="yes"/>
			<point x="508" y="97"/>
			<point x="499" y="123"/>
			<point x="477" y="150" type="curve"/>
			<point x="533" y="187"/>
			<point x="581" y="250"/>
			<point x="581" y="320" type="curve" smooth="yes"/>
			<point x="581" y="368"/>
			<point x="557" y="409"/>
			<point x="517" y="431" type="curve" smooth="yes"/>
			<point x="368" y="512" type="line" smooth="yes"/>
			<point x="336" y="529"/>
			<point x="319" y="549"/>
			<point x="319" y="572" type="curve" smooth="yes"/>
			<point x="319" y="614"/>
			<point x="361" y="630"/>
			<point x="397" y="630" type="curve" smooth="yes"/>
			<point x="448" y="630"/>
			<point x="470" y="610"/>
			<point x="470" y="563" type="curve"/>
			<point x="596" y="563" type="line"/>
			<point x="597" y="567"/>
			<point x="598" y="576"/>
			<point x="598" y="583" type="curve" smooth="yes"/>
			<point x="598" y="694"/>
			<point x="539" y="752"/>
			<point x="425" y="752" type="curve" smooth="yes"/>
			<point x="308" y="752"/>
			<point x="190" y="678"/>
			<point x="190" y="552" type="curve" smooth="yes"/>
			<point x="190" y="531"/>
			<point x="194" y="513"/>
			<point x="204" y="493" type="curve"/>
			<point x="134" y="448"/>
			<point x="96" y="392"/>
			<point x="96" y="309" type="curve" smooth="yes"/>
			<point x="96" y="255"/>
			<point x="121" y="215"/>
			<point x="171" y="187" type="curve" smooth="yes"/>
			<point x="318" y="103" type="line" smooth="yes"/>
			<point x="364" y="77"/>
			<point x="379" y="64"/>
			<point x="379" y="42" type="curve" smooth="yes"/>
			<point x="379" y="-10"/>
			<point x="324" y="-35"/>
			<point x="279" y="-35" type="curve" smooth="yes"/>
			<point x="243" y="-35"/>
			<point x="195" y="-17"/>
			<point x="195" y="26" type="curve" smooth="yes"/>
			<point x="195" y="36"/>
			<point x="196" y="45"/>
			<point x="199" y="55" type="curve"/>
		</contour>
		<contour>
			<point x="403" y="215" type="curve"/>
			<point x="266" y="291" type="line" smooth="yes"/>
			<point x="232" y="310"/>
			<point x="217" y="327"/>
			<point x="217" y="346" type="curve" smooth="yes"/>
			<point x="217" y="376"/>
			<point x="246" y="397"/>
			<point x="268" y="413" type="curve"/>
			<point x="403" y="339" type="line" smooth="yes"/>
			<point x="440" y="318"/>
			<point x="453" y="306"/>
			<point x="453" y="288" type="curve" smooth="yes"/>
			<point x="453" y="257"/>
			<point x="427" y="230"/>
		</contour>
	</outline>
</glyph>
<glyph name="copyright" format="2">
  <advance width="791"/>
  <unicode hex="00A9"/>
  <outline>
    <contour>
      <point x="558" y="320" type="line"/>
      <point x="527" y="274"/>
      <point x="489" y="250"/>
      <point x="445" y="250" type="curve" smooth="yes"/>
      <point x="390" y="250"/>
      <point x="355" y="291"/>
      <point x="355" y="347" type="curve" smooth="yes"/>
      <point x="355" y="355"/>
      <point x="355" y="364"/>
      <point x="357" y="373" type="curve"/>
      <point x="370" y="442"/>
      <point x="428" y="494"/>
      <point x="491" y="494" type="curve" smooth="yes"/>
      <point x="536" y="494"/>
      <point x="569" y="466"/>
      <point x="577" y="422" type="curve"/>
      <point x="688" y="422" type="line"/>
      <point x="688" y="515"/>
      <point x="611" y="587"/>
      <point x="509" y="587" type="curve" smooth="yes"/>
      <point x="387" y="587"/>
      <point x="274" y="493"/>
      <point x="252" y="372" type="curve"/>
      <point x="249" y="358"/>
      <point x="248" y="345"/>
      <point x="248" y="332" type="curve" smooth="yes"/>
      <point x="248" y="232"/>
      <point x="322" y="157"/>
      <point x="430" y="157" type="curve" smooth="yes"/>
      <point x="531" y="157"/>
      <point x="627" y="222"/>
      <point x="669" y="320" type="curve"/>
    </contour>
    <contour>
      <point x="72" y="300" type="curve" smooth="yes"/>
      <point x="72" y="122"/>
      <point x="205" y="-13"/>
      <point x="394" y="-13" type="curve" smooth="yes"/>
      <point x="606" y="-13"/>
      <point x="810" y="158"/>
      <point x="849" y="369" type="curve" smooth="yes"/>
      <point x="853" y="393"/>
      <point x="856" y="415"/>
      <point x="856" y="438" type="curve" smooth="yes"/>
      <point x="856" y="615"/>
      <point x="724" y="752"/>
      <point x="539" y="752" type="curve" smooth="yes"/>
      <point x="321" y="752"/>
      <point x="118" y="583"/>
      <point x="78" y="369" type="curve" smooth="yes"/>
      <point x="74" y="345"/>
      <point x="72" y="322"/>
    </contour>
    <contour>
      <point x="153" y="315" type="curve" smooth="yes"/>
      <point x="153" y="333"/>
      <point x="156" y="351"/>
      <point x="159" y="370" type="curve"/>
      <point x="190" y="537"/>
      <point x="352" y="675"/>
      <point x="517" y="675" type="curve" smooth="yes"/>
      <point x="670" y="675"/>
      <point x="775" y="569"/>
      <point x="775" y="426" type="curve" smooth="yes"/>
      <point x="775" y="407"/>
      <point x="773" y="389"/>
      <point x="769" y="369" type="curve" smooth="yes"/>
      <point x="738" y="203"/>
      <point x="576" y="67"/>
      <point x="407" y="67" type="curve" smooth="yes"/>
      <point x="258" y="67"/>
      <point x="153" y="174"/>
    </contour>
  </outline>
</glyph>
<glyph name="guillemotleft" format="2">
	<unicode hex="00AB"/>
	<advance width="460"/>
	<outline>
		<contour>
			<point x="204" y="108" type="line"/>
			<point x="227" y="231" type="line"/>
			<point x="171" y="289" type="line"/>
			<point x="248" y="346" type="line"/>
			<point x="271" y="469" type="line"/>
			<point x="108" y="339" type="line"/>
			<point x="89" y="239" type="line"/>
		</contour>
		<contour>
			<point x="417" y="108" type="line"/>
			<point x="440" y="231" type="line"/>
			<point x="384" y="289" type="line"/>
			<point x="461" y="346" type="line"/>
			<point x="484" y="469" type="line"/>
			<point x="321" y="339" type="line"/>
			<point x="302" y="239" type="line"/>
		</contour>
	</outline>
</glyph>
<glyph name="softhyphen" format="2">
  <advance width="337"/>
  <unicode hex="00AD"/>
  <outline>
    <contour>
      <point x="72" y="229" type="line"/>
      <point x="349" y="229" type="line"/>
      <point x="371" y="347" type="line"/>
      <point x="94" y="347" type="line"/>
    </contour>
  </outline>
</glyph>
<glyph name="plusminus" format="2">
  <advance width="600"/>
  <unicode hex="00B1"/>
  <outline>
    <contour>
      <point x="272" y="175" type="line"/>
      <point x="392" y="175" type="line"/>
      <point x="423" y="340" type="line"/>
      <point x="615" y="340" type="line"/>
      <point x="637" y="458" type="line"/>
      <point x="445" y="458" type="line"/>
      <point x="481" y="653" type="line"/>
      <point x="361" y="653" type="line"/>
      <point x="325" y="458" type="line"/>
      <point x="133" y="458" type="line"/>
      <point x="111" y="340" type="line"/>
      <point x="303" y="340" type="line"/>
    </contour>
    <contour>
      <point x="48" y="0" type="line"/>
      <point x="552" y="0" type="line"/>
      <point x="574" y="118" type="line"/>
      <point x="70" y="118" type="line"/>
    </contour>
  </outline>
</glyph>
<glyph name="threesuperior" format="2">
  <advance width="336"/>
  <unicode hex="00B3"/>
  <outline>
    <contour>
      <point x="84" y="435" type="line"/>
      <point x="83" y="428"/>
      <point x="82" y="421"/>
      <point x="82" y="414" type="curve" smooth="yes"/>
      <point x="82" y="339"/>
      <point x="136" y="288"/>
      <point x="222" y="288" type="curve" smooth="yes"/>
      <point x="320" y="288"/>
      <point x="414" y="365"/>
      <point x="414" y="467" type="curve" smooth="yes"/>
      <point x="414" y="505"/>
      <point x="397" y="535"/>
      <point x="366" y="551" type="curve"/>
      <point x="399" y="573"/>
      <point x="416" y="609"/>
      <point x="416" y="648" type="curve" smooth="yes"/>
      <point x="416" y="706"/>
      <point x="371" y="746"/>
      <point x="304" y="746" type="curve" smooth="yes"/>
      <point x="227" y="746"/>
      <point x="173" y="699"/>
      <point x="152" y="628" type="curve"/>
      <point x="241" y="628" type="line"/>
      <point x="251" y="657"/>
      <point x="265" y="668"/>
      <point x="291" y="668" type="curve" smooth="yes"/>
      <point x="313" y="668"/>
      <point x="327" y="655"/>
      <point x="327" y="637" type="curve" smooth="yes"/>
      <point x="327" y="595"/>
      <point x="282" y="588"/>
      <point x="248" y="588" type="curve" smooth="yes"/>
      <point x="236" y="588" type="line"/>
      <point x="221" y="506" type="line"/>
      <point x="242" y="506" type="line" smooth="yes"/>
      <point x="294" y="506"/>
      <point x="325" y="485"/>
      <point x="325" y="449" type="curve" smooth="yes"/>
      <point x="325" y="401"/>
      <point x="283" y="367"/>
      <point x="237" y="367" type="curve" smooth="yes"/>
      <point x="199" y="367"/>
      <point x="171" y="389"/>
      <point x="171" y="420" type="curve" smooth="yes"/>
      <point x="171" y="425"/>
      <point x="171" y="429"/>
      <point x="172" y="435" type="curve"/>
    </contour>
  </outline>
</glyph>
<glyph name="mu" format="2">
  <advance width="601"/>
  <unicode hex="00B5"/>
  <outline>
    <contour>
      <point x="20" y="-185" type="line"/>
      <point x="153" y="-185" type="line"/>
      <point x="197" y="52" type="line"/>
      <point x="221" y="6"/>
      <point x="251" y="-13"/>
      <point x="298" y="-13" type="curve" smooth="yes"/>
      <point x="349" y="-13"/>
      <point x="385" y="5"/>
      <point x="434" y="53" type="curve"/>
      <point x="424" y="0" type="line"/>
      <point x="547" y="0" type="line"/>
      <point x="650" y="554" type="line"/>
      <point x="517" y="554" type="line"/>
      <point x="468" y="293" type="line" smooth="yes"/>
      <point x="455" y="222"/>
      <point x="444" y="187"/>
      <point x="427" y="162" type="curve" smooth="yes"/>
      <point x="404" y="129"/>
      <point x="365" y="109"/>
      <point x="326" y="109" type="curve" smooth="yes"/>
      <point x="288" y="109"/>
      <point x="258" y="128"/>
      <point x="241" y="162" type="curve"/>
      <point x="233" y="177"/>
      <point x="230" y="189"/>
      <point x="230" y="207" type="curve" smooth="yes"/>
      <point x="230" y="226"/>
      <point x="233" y="251"/>
      <point x="241" y="293" type="curve" smooth="yes"/>
      <point x="290" y="554" type="line"/>
      <point x="157" y="554" type="line"/>
    </contour>
  </outline>
</glyph>
<glyph name="paragraph" format="2">
	<unicode hex="00B6"/>
	<advance width="600"/>
	<outline>
		<contour>
			<point x="217" y="-128" type="line"/>
			<point x="318" y="-128" type="line"/>
			<point x="459" y="632" type="line"/>
			<point x="543" y="632" type="line"/>
			<point x="402" y="-128" type="line"/>
			<point x="503" y="-128" type="line"/>
			<point x="664" y="739" type="line"/>
			<point x="446" y="739" type="line" smooth="yes"/>
			<point x="371" y="739"/>
			<point x="312" y="729"/>
			<point x="272" y="711" type="curve" smooth="yes"/>
			<point x="201" y="678"/>
			<point x="151" y="612"/>
			<point x="136" y="533" type="curve" smooth="yes"/>
			<point x="133" y="518"/>
			<point x="132" y="503"/>
			<point x="132" y="489" type="curve" smooth="yes"/>
			<point x="132" y="394"/>
			<point x="196" y="332"/>
			<point x="302" y="330" type="curve"/>
		</contour>
	</outline>
</glyph>
<glyph name="periodcentered" format="2">
	<unicode hex="00B7"/>
	<advance width="281"/>
	<outline>
		<contour>
			<point x="130" y="300" type="line"/>
			<point x="263" y="300" type="line"/>
			<point x="288" y="433" type="line"/>
			<point x="154" y="433" type="line"/>
		</contour>
	</outline>
</glyph>
<glyph name="onesuperior" format="2">
  <advance width="336"/>
  <unicode hex="00B9"/>
  <outline>
    <contour>
      <point x="195" y="296" type="line"/>
      <point x="283" y="296" type="line"/>
      <point x="365" y="739" type="line"/>
      <point x="218" y="739" type="line"/>
      <point x="203" y="659" type="line"/>
      <point x="262" y="659" type="line"/>
    </contour>
  </outline>
</glyph>
<glyph name="ordmasculine" format="2">
	<unicode hex="00BA"/>
	<advance width="367"/>
	<outline>
		<contour>
			<point x="138" y="569" type="curve" smooth="yes"/>
			<point x="138" y="497"/>
			<point x="191" y="442"/>
			<point x="266" y="442" type="curve" smooth="yes"/>
			<point x="351" y="442"/>
			<point x="432" y="511"/>
			<point x="448" y="597" type="curve" smooth="yes"/>
			<point x="450" y="607"/>
			<point x="450" y="616"/>
			<point x="450" y="625" type="curve" smooth="yes"/>
			<point x="450" y="696"/>
			<point x="399" y="750"/>
			<point x="325" y="750" type="curve" smooth="yes"/>
			<point x="238" y="750"/>
			<point x="157" y="683"/>
			<point x="141" y="598" type="curve" smooth="yes"/>
			<point x="139" y="588"/>
			<point x="138" y="578"/>
		</contour>
		<contour>
			<point x="212" y="581" type="curve" smooth="yes"/>
			<point x="212" y="586"/>
			<point x="213" y="592"/>
			<point x="214" y="598" type="curve" smooth="yes"/>
			<point x="222" y="643"/>
			<point x="265" y="680"/>
			<point x="308" y="680" type="curve" smooth="yes"/>
			<point x="348" y="680"/>
			<point x="376" y="651"/>
			<point x="376" y="613" type="curve" smooth="yes"/>
			<point x="376" y="608"/>
			<point x="376" y="603"/>
			<point x="375" y="598" type="curve" smooth="yes"/>
			<point x="366" y="551"/>
			<point x="326" y="516"/>
			<point x="280" y="516" type="curve" smooth="yes"/>
			<point x="239" y="516"/>
			<point x="212" y="543"/>
		</contour>
		<contour>
			<point x="88" y="311" type="line"/>
			<point x="395" y="311" type="line"/>
			<point x="408" y="381" type="line"/>
			<point x="101" y="381" type="line"/>
		</contour>
	</outline>
</glyph>
<glyph name="guillemotright" format="2">
  <advance width="460"/>
  <unicode hex="00BB"/>
  <outline>
    <contour>
      <point x="106" y="231" type="line"/>
      <point x="83" y="108" type="line"/>
      <point x="246" y="239" type="line"/>
      <point x="265" y="339" type="line"/>
      <point x="150" y="469" type="line"/>
      <point x="127" y="346" type="line"/>
      <point x="184" y="289" type="line"/>
    </contour>
    <contour>
      <point x="319" y="231" type="line"/>
      <point x="296" y="108" type="line"/>
      <point x="459" y="239" type="line"/>
      <point x="478" y="339" type="line"/>
      <point x="363" y="469" type="line"/>
      <point x="340" y="346" type="line"/>
      <point x="397" y="289" type="line"/>
    </contour>
  </outline>
</glyph>
<glyph name="threequarters" format="2">
  <advance width="840"/>
  <unicode hex="00BE"/>
  <outline>
    <contour>
      <point x="87" y="435" type="line"/>
      <point x="86" y="428"/>
      <point x="85" y="421"/>
      <point x="85" y="414" type="curve" smooth="yes"/>
      <point x="85" y="339"/>
      <point x="139" y="288"/>
      <point x="225" y="288" type="curve" smooth="yes"/>
      <point x="323" y="288"/>
      <point x="417" y="365"/>
      <point x="417" y="467" type="curve" smooth="yes"/>
      <point x="417" y="505"/>
      <point x="400" y="535"/>
      <point x="369" y="551" type="curve"/>
      <point x="402" y="573"/>
      <point x="419" y="609"/>
      <point x="419" y="648" type="curve" smooth="yes"/>
      <point x="419" y="706"/>
      <point x="374" y="746"/>
      <point x="307" y="746" type="curve" smooth="yes"/>
      <point x="230" y="746"/>
      <point x="176" y="699"/>
      <point x="155" y="628" type="curve"/>
      <point x="244" y="628" type="line"/>
      <point x="254" y="657"/>
      <point x="268" y="668"/>
      <point x="294" y="668" type="curve" smooth="yes"/>
      <point x="316" y="668"/>
      <point x="330" y="655"/>
      <point x="330" y="637" type="curve" smooth="yes"/>
      <point x="330" y="592"/>
      <point x="280" y="588"/>
      <point x="246" y="588" type="curve" smooth="yes"/>
      <point x="239" y="588" type="line"/>
      <point x="224" y="506" type="line"/>
      <point x="245" y="506" type="line" smooth="yes"/>
      <point x="297" y="506"/>
      <point x="328" y="485"/>
      <point x="328" y="449" type="curve" smooth="yes"/>
      <point x="328" y="401"/>
      <point x="286" y="367"/>
      <point x="240" y="367" type="curve" smooth="yes"/>
      <point x="201" y="367"/>
      <point x="174" y="384"/>
      <point x="174" y="423" type="curve" smooth="yes"/>
      <point x="174" y="427"/>
      <point x="174" y="431"/>
      <point x="175" y="435" type="curve"/>
    </contour>
    <contour>
      <point x="252" y="0" type="line"/>
      <point x="347" y="0" type="line"/>
      <point x="790" y="739" type="line"/>
      <point x="695" y="739" type="line"/>
    </contour>
    <contour>
      <point x="520" y="66" type="line"/>
      <point x="714" y="66" type="line"/>
      <point x="702" y="0" type="line"/>
      <point x="790" y="0" type="line"/>
      <point x="802" y="66" type="line"/>
      <point x="850" y="66" type="line"/>
      <point x="864" y="142" type="line"/>
      <point x="816" y="142" type="line"/>
      <point x="872" y="443" type="line"/>
      <point x="798" y="443" type="line"/>
      <point x="533" y="133" type="line"/>
    </contour>
    <contour>
      <point x="626" y="142" type="line"/>
      <point x="757" y="296" type="line"/>
      <point x="728" y="142" type="line"/>
    </contour>
  </outline>
</glyph>
<glyph name="Acircumflex" format="2">
  <advance width="740"/>
  <unicode hex="00C2"/>
  <outline>
    <component base="A"/>
    <contour>
      <point x="320" y="805" type="line"/>
      <point x="467" y="805" type="line"/>
      <point x="533" y="869" type="line"/>
      <point x="574" y="805" type="line"/>
      <point x="719" y="805" type="line"/>
      <point x="600" y="943" type="line"/>
      <point x="493" y="943" type="line"/>
    </contour>
  </outline>
</glyph>
<glyph name="Atilde" format="2">
  <advance width="740"/>
  <unicode hex="00C3"/>
  <outline>
    <component base="A"/>
    <contour>
      <point x="409" y="811" type="line"/>
      <point x="433" y="832"/>
      <point x="458" y="838"/>
      <point x="484" y="838" type="curve" smooth="yes"/>
      <point x="501" y="838"/>
      <point x="514" y="836"/>
      <point x="531" y="826" type="curve" smooth="yes"/>
      <point x="550" y="815"/>
      <point x="570" y="811"/>
      <point x="592" y="811" type="curve" smooth="yes"/>
      <point x="627" y="811"/>
      <point x="658" y="827"/>
      <point x="697" y="866" type="curve"/>
      <point x="658" y="947" type="line"/>
      <point x="633" y="923"/>
      <point x="610" y="913"/>
      <point x="584" y="913" type="curve" smooth="yes"/>
      <point x="570" y="913"/>
      <point x="558" y="915"/>
      <point x="539" y="924" type="curve" smooth="yes"/>
      <point x="512" y="937"/>
      <point x="504" y="940"/>
      <point x="482" y="940" type="curve" smooth="yes"/>
      <point x="440" y="940"/>
      <point x="411" y="926"/>
      <point x="370" y="891" type="curve"/>
    </contour>
  </outline>
</glyph>
<glyph name="Adieresis" format="2">
	<unicode hex="00C4"/>
	<advance width="740"/>
	<outline>
		<component base="A"/>
		<contour>
			<point x="348" y="805" type="line"/>
			<point x="481" y="805" type="line"/>
			<point x="506" y="938" type="line"/>
			<point x="373" y="938" type="line"/>
		</contour>
		<contour>
			<point x="558" y="805" type="line"/>
			<point x="691" y="805" type="line"/>
			<point x="716" y="938" type="line"/>
			<point x="583" y="938" type="line"/>
		</contour>
	</outline>
</glyph>
<glyph name="Aring" format="2">
  <advance width="740"/>
  <unicode hex="00C5"/>
  <outline>
    <component base="A"/>
    <contour>
      <point x="430" y="869" type="curve" smooth="yes"/>
      <point x="430" y="820"/>
      <point x="465" y="785"/>
      <point x="515" y="785" type="curve" smooth="yes"/>
      <point x="586" y="785"/>
      <point x="639" y="838"/>
      <point x="639" y="907" type="curve" smooth="yes"/>
      <point x="639" y="956"/>
      <point x="604" y="991"/>
      <point x="555" y="991" type="curve" smooth="yes"/>
      <point x="483" y="991"/>
      <point x="430" y="939"/>
    </contour>
    <contour>
      <point x="498" y="881" type="curve" smooth="yes"/>
      <point x="498" y="905"/>
      <point x="517" y="924"/>
      <point x="540" y="924" type="curve" smooth="yes"/>
      <point x="561" y="924"/>
      <point x="571" y="912"/>
      <point x="571" y="895" type="curve" smooth="yes"/>
      <point x="571" y="870"/>
      <point x="554" y="852"/>
      <point x="528" y="852" type="curve" smooth="yes"/>
      <point x="510" y="852"/>
      <point x="498" y="864"/>
    </contour>
  </outline>
</glyph>
<glyph name="Ccedilla" format="2">
	<unicode hex="00C7"/>
	<advance width="802"/>
	<outline>
		<component base="C"/>
		<contour>
			<point x="282" y="-166" type="line"/>
			<point x="282" y="-216"/>
			<point x="315" y="-251"/>
			<point x="366" y="-251" type="curve" smooth="yes"/>
			<point x="431" y="-251"/>
			<point x="483" y="-196"/>
			<point x="483" y="-132" type="curve" smooth="yes"/>
			<point x="483" y="-86"/>
			<point x="453" y="-51"/>
			<point x="409" y="-51" type="curve" smooth="yes"/>
			<point x="400" y="-51"/>
			<point x="392" y="-53"/>
			<point x="378" y="-58" type="curve"/>
			<point x="410" y="0" type="line"/>
			<point x="361" y="6" type="line"/>
			<point x="302" y="-107" type="line"/>
			<point x="350" y="-133" type="line"/>
			<point x="367" y="-113"/>
			<point x="378" y="-106"/>
			<point x="393" y="-106" type="curve" smooth="yes"/>
			<point x="411" y="-106"/>
			<point x="424" y="-121"/>
			<point x="424" y="-141" type="curve" smooth="yes"/>
			<point x="424" y="-144"/>
			<point x="424" y="-147"/>
			<point x="423" y="-150" type="curve"/>
			<point x="418" y="-176"/>
			<point x="398" y="-196"/>
			<point x="376" y="-196" type="curve" smooth="yes"/>
			<point x="359" y="-196"/>
			<point x="348" y="-186"/>
			<point x="344" y="-166" type="curve"/>
		</contour>
	</outline>
</glyph>
<glyph name="Egrave" format="2">
	<unicode hex="00C8"/>
	<advance width="524"/>
	<outline>
		<contour>
			<point x="71" y="0" type="line"/>
			<point x="468" y="0" type="line"/>
			<point x="492" y="131" type="line"/>
			<point x="232" y="131" type="line"/>
			<point x="264" y="303" type="line"/>
			<point x="513" y="303" type="line"/>
			<point x="537" y="434" type="line"/>
			<point x="288" y="434" type="line"/>
			<point x="321" y="608" type="line"/>
			<point x="581" y="608" type="line"/>
			<point x="605" y="739" type="line"/>
			<point x="208" y="739" type="line"/>
		</contour>
		<contour>
			<point x="259" y="912" type="line"/>
			<point x="462" y="788" type="line"/>
			<point x="530" y="867" type="line"/>
			<point x="332" y="1000" type="line"/>
		</contour>
	</outline>
</glyph>
<glyph name="Ograve" format="2">
  <advance width="842"/>
  <unicode hex="00D2"/>
  <outline>
    <component base="O"/>
    <contour>
      <point x="451" y="912" type="line"/>
      <point x="654" y="788" type="line"/>
      <point x="722" y="867" type="line"/>
      <point x="524" y="1000" type="line"/>
    </contour>
  </outline>
</glyph>
<glyph name="Oacute" format="2">
  <advance width="842"/>
  <unicode hex="00D3"/>
  <outline>
    <component base="O"/>
    <contour>
      <point x="479" y="788" type="line"/>
      <point x="728" y="908" type="line"/>
      <point x="691" y="1000" type="line"/>
      <point x="443" y="866" type="line"/>
    </contour>
  </outline>
</glyph>
<glyph name="Ocircumflex" format="2">
	<unicode hex="00D4"/>
	<advance width="842"/>
	<outline>
		<component base="O"/>
		<contour>
			<point x="371" y="805" type="line"/>
			<point x="518" y="805" type="line"/>
			<point x="584" y="869" type="line"/>
			<point x="625" y="805" type="line"/>
			<point x="770" y="805" type="line"/>
			<point x="651" y="943" type="line"/>
			<point x="544" y="943" type="line"/>
		</contour>
	</outline>
</glyph>
<glyph name="Otilde" format="2">
  <advance width="842"/>
  <unicode hex="00D5"/>
  <outline>
    <component base="O"/>
    <contour>
      <point x="460" y="811" type="line"/>
      <point x="502" y="834"/>
      <point x="509" y="836"/>
      <point x="535" y="836" type="curve" smooth="yes"/>
      <point x="552" y="836"/>
      <point x="562" y="833"/>
      <point x="587" y="824" type="curve" smooth="yes"/>
      <point x="610" y="816"/>
      <point x="628" y="811"/>
      <point x="643" y="811" type="curve" smooth="yes"/>
      <point x="678" y="811"/>
      <point x="709" y="827"/>
      <point x="748" y="866" type="curve"/>
      <point x="709" y="947" type="line"/>
      <point x="684" y="923"/>
      <point x="661" y="913"/>
      <point x="635" y="913" type="curve" smooth="yes"/>
      <point x="621" y="913"/>
      <point x="609" y="916"/>
      <point x="590" y="924" type="curve" smooth="yes"/>
      <point x="563" y="936"/>
      <point x="555" y="938"/>
      <point x="533" y="938" type="curve" smooth="yes"/>
      <point x="491" y="938"/>
      <point x="462" y="926"/>
      <point x="421" y="891" type="curve"/>
    </contour>
  </outline>
</glyph>
<glyph name="Odieresis" format="2">
	<unicode hex="00D6"/>
	<advance width="842"/>
	<outline>
		<component base="O"/>
		<contour>
			<point x="399" y="805" type="line"/>
			<point x="532" y="805" type="line"/>
			<point x="557" y="938" type="line"/>
			<point x="424" y="938" type="line"/>
		</contour>
		<contour>
			<point x="609" y="805" type="line"/>
			<point x="742" y="805" type="line"/>
			<point x="767" y="938" type="line"/>
			<point x="634" y="938" type="line"/>
		</contour>
	</outline>
</glyph>
<glyph name="Oslash" format="2">
  <advance width="845"/>
  <unicode hex="00D8"/>
  <outline>
    <contour>
      <point x="103" y="0" type="line"/>
      <point x="187" y="-65" type="line"/>
      <point x="263" y="23" type="line"/>
      <point x="312" y="-1"/>
      <point x="365" y="-13"/>
      <point x="425" y="-13" type="curve" smooth="yes"/>
      <point x="641" y="-13"/>
      <point x="838" y="154"/>
      <point x="878" y="370" type="curve" smooth="yes"/>
      <point x="883" y="395"/>
      <point x="884" y="419"/>
      <point x="884" y="442" type="curve" smooth="yes"/>
      <point x="884" y="522"/>
      <point x="858" y="595"/>
      <point x="804" y="653" type="curve"/>
      <point x="882" y="743" type="line"/>
      <point x="799" y="809" type="line"/>
      <point x="720" y="717" type="line"/>
      <point x="668" y="741"/>
      <point x="619" y="752"/>
      <point x="561" y="752" type="curve" smooth="yes"/>
      <point x="346" y="752"/>
      <point x="144" y="582"/>
      <point x="105" y="370" type="curve" smooth="yes"/>
      <point x="101" y="347"/>
      <point x="98" y="324"/>
      <point x="98" y="301" type="curve" smooth="yes"/>
      <point x="98" y="219"/>
      <point x="126" y="143"/>
      <point x="178" y="87" type="curve"/>
    </contour>
    <contour>
      <point x="707" y="540" type="line"/>
      <point x="731" y="504"/>
      <point x="744" y="462"/>
      <point x="744" y="417" type="curve" smooth="yes"/>
      <point x="744" y="401"/>
      <point x="742" y="385"/>
      <point x="739" y="368" type="curve" smooth="yes"/>
      <point x="713" y="226"/>
      <point x="588" y="119"/>
      <point x="448" y="119" type="curve" smooth="yes"/>
      <point x="416" y="119"/>
      <point x="390" y="124"/>
      <point x="360" y="135" type="curve"/>
    </contour>
    <contour>
      <point x="276" y="201" type="line"/>
      <point x="251" y="237"/>
      <point x="238" y="280"/>
      <point x="238" y="325" type="curve" smooth="yes"/>
      <point x="238" y="340"/>
      <point x="240" y="355"/>
      <point x="243" y="370" type="curve" smooth="yes"/>
      <point x="269" y="510"/>
      <point x="398" y="620"/>
      <point x="537" y="620" type="curve" smooth="yes"/>
      <point x="569" y="620"/>
      <point x="596" y="615"/>
      <point x="623" y="605" type="curve"/>
    </contour>
  </outline>
</glyph>
<glyph name="germandbls" format="2">
  <advance width="616"/>
  <unicode hex="00DF"/>
  <outline>
    <contour>
      <point x="54" y="0" type="line"/>
      <point x="176" y="0" type="line"/>
      <point x="191" y="79" type="line"/>
      <point x="217" y="17"/>
      <point x="269" y="-13"/>
      <point x="351" y="-13" type="curve" smooth="yes"/>
      <point x="498" y="-13"/>
      <point x="631" y="106"/>
      <point x="631" y="256" type="curve" smooth="yes"/>
      <point x="631" y="343"/>
      <point x="572" y="389"/>
      <point x="494" y="408" type="curve"/>
      <point x="562" y="443"/>
      <point x="598" y="509"/>
      <point x="598" y="584" type="curve" smooth="yes"/>
      <point x="598" y="682"/>
      <point x="524" y="752"/>
      <point x="414" y="752" type="curve" smooth="yes"/>
      <point x="257" y="752"/>
      <point x="170" y="627"/>
      <point x="144" y="487" type="curve" smooth="yes"/>
    </contour>
    <contour>
      <point x="222" y="189" type="line"/>
      <point x="280" y="503" type="line" smooth="yes"/>
      <point x="296" y="588"/>
      <point x="333" y="630"/>
      <point x="391" y="630" type="curve" smooth="yes"/>
      <point x="435" y="630"/>
      <point x="461" y="603"/>
      <point x="461" y="560" type="curve" smooth="yes"/>
      <point x="461" y="499"/>
      <point x="414" y="433"/>
      <point x="349" y="433" type="curve" smooth="yes"/>
      <point x="338" y="433" type="line"/>
      <point x="316" y="315" type="line"/>
      <point x="385" y="315" type="line" smooth="yes"/>
      <point x="450" y="315"/>
      <point x="493" y="295"/>
      <point x="493" y="226" type="curve" smooth="yes"/>
      <point x="493" y="166"/>
      <point x="445" y="109"/>
      <point x="383" y="109" type="curve" smooth="yes"/>
      <point x="343" y="109"/>
      <point x="302" y="126"/>
      <point x="302" y="170" type="curve" smooth="yes"/>
      <point x="302" y="176"/>
      <point x="303" y="182"/>
      <point x="304" y="189" type="curve"/>
    </contour>
  </outline>
</glyph>
<glyph name="agrave" format="2">
  <advance width="667"/>
  <unicode hex="00E0"/>
  <outline>
    <component base="a"/>
    <contour>
      <point x="305" y="737" type="line"/>
      <point x="508" y="613" type="line"/>
      <point x="575" y="692" type="line"/>
      <point x="378" y="825" type="line"/>
    </contour>
  </outline>
</glyph>
<glyph name="aacute" format="2">
	<unicode hex="00E1"/>
	<advance width="667"/>
	<outline>
		<component base="a"/>
		<contour>
			<point x="407" y="613" type="line"/>
			<point x="656" y="733" type="line"/>
			<point x="619" y="825" type="line"/>
			<point x="370" y="691" type="line"/>
		</contour>
	</outline>
</glyph>
<glyph name="atilde" format="2">
	<unicode hex="00E3"/>
	<advance width="667"/>
	<outline>
		<component base="a"/>
		<contour>
			<point x="350" y="636" type="line"/>
			<point x="392" y="659"/>
			<point x="399" y="661"/>
			<point x="425" y="661" type="curve" smooth="yes"/>
			<point x="442" y="661"/>
			<point x="451" y="659"/>
			<point x="476" y="649" type="curve" smooth="yes"/>
			<point x="500" y="640"/>
			<point x="518" y="636"/>
			<point x="533" y="636" type="curve" smooth="yes"/>
			<point x="568" y="636"/>
			<point x="598" y="652"/>
			<point x="637" y="691" type="curve"/>
			<point x="598" y="772" type="line"/>
			<point x="573" y="748"/>
			<point x="551" y="738"/>
			<point x="525" y="738" type="curve" smooth="yes"/>
			<point x="511" y="738"/>
			<point x="499" y="741"/>
			<point x="480" y="749" type="curve" smooth="yes"/>
			<point x="453" y="761"/>
			<point x="444" y="763"/>
			<point x="422" y="763" type="curve" smooth="yes"/>
			<point x="380" y="763"/>
			<point x="352" y="751"/>
			<point x="311" y="716" type="curve"/>
		</contour>
	</outline>
</glyph>
<glyph name="aring" format="2">
  <advance width="667"/>
  <unicode hex="00E5"/>
  <outline>
    <component base="a"/>
    <contour>
      <point x="371" y="694" type="curve" smooth="yes"/>
      <point x="371" y="646"/>
      <point x="406" y="610"/>
      <point x="457" y="610" type="curve" smooth="yes"/>
      <point x="520" y="610"/>
      <point x="581" y="668"/>
      <point x="581" y="732" type="curve" smooth="yes"/>
      <point x="581" y="779"/>
      <point x="546" y="816"/>
      <point x="496" y="816" type="curve" smooth="yes"/>
      <point x="432" y="816"/>
      <point x="371" y="759"/>
    </contour>
    <contour>
      <point x="440" y="706" type="curve" smooth="yes"/>
      <point x="440" y="727"/>
      <point x="457" y="749"/>
      <point x="482" y="749" type="curve" smooth="yes"/>
      <point x="503" y="749"/>
      <point x="513" y="736"/>
      <point x="513" y="717" type="curve" smooth="yes"/>
      <point x="513" y="696"/>
      <point x="492" y="677"/>
      <point x="472" y="677" type="curve" smooth="yes"/>
      <point x="449" y="677"/>
      <point x="440" y="691"/>
    </contour>
  </outline>
</glyph>
<glyph name="ae" format="2">
	<unicode hex="00E6"/>
	<advance width="1077"/>
	<outline>
		<contour>
			<point x="74" y="218" type="curve" smooth="yes"/>
			<point x="74" y="83"/>
			<point x="170" y="-13"/>
			<point x="316" y="-13" type="curve" smooth="yes"/>
			<point x="392" y="-13"/>
			<point x="439" y="6"/>
			<point x="494" y="60" type="curve"/>
			<point x="483" y="0" type="line"/>
			<point x="605" y="0" type="line"/>
			<point x="616" y="60" type="line"/>
			<point x="651" y="9"/>
			<point x="698" y="-13"/>
			<point x="772" y="-13" type="curve" smooth="yes"/>
			<point x="886" y="-13"/>
			<point x="1008" y="63"/>
			<point x="1060" y="164" type="curve"/>
			<point x="915" y="164" type="line"/>
			<point x="876" y="125"/>
			<point x="838" y="109"/>
			<point x="788" y="109" type="curve" smooth="yes"/>
			<point x="713" y="109"/>
			<point x="663" y="150"/>
			<point x="653" y="219" type="curve"/>
			<point x="1081" y="219" type="line"/>
			<point x="1098" y="258"/>
			<point x="1107" y="300"/>
			<point x="1107" y="342" type="curve" smooth="yes"/>
			<point x="1107" y="472"/>
			<point x="1014" y="567"/>
			<point x="877" y="567" type="curve" smooth="yes"/>
			<point x="806" y="567"/>
			<point x="753" y="547"/>
			<point x="697" y="499" type="curve"/>
			<point x="708" y="554" type="line"/>
			<point x="586" y="554" type="line"/>
			<point x="575" y="499" type="line"/>
			<point x="538" y="547"/>
			<point x="493" y="567"/>
			<point x="421" y="567" type="curve" smooth="yes"/>
			<point x="235" y="567"/>
			<point x="74" y="402"/>
		</contour>
		<contour>
			<point x="210" y="242" type="curve" smooth="yes"/>
			<point x="210" y="344"/>
			<point x="295" y="445"/>
			<point x="401" y="445" type="curve" smooth="yes"/>
			<point x="481" y="445"/>
			<point x="534" y="390"/>
			<point x="534" y="312" type="curve" smooth="yes"/>
			<point x="534" y="209"/>
			<point x="448" y="109"/>
			<point x="342" y="109" type="curve" smooth="yes"/>
			<point x="262" y="109"/>
			<point x="210" y="164"/>
		</contour>
		<contour>
			<point x="667" y="337" type="line"/>
			<point x="707" y="410"/>
			<point x="764" y="445"/>
			<point x="841" y="445" type="curve" smooth="yes"/>
			<point x="922" y="445"/>
			<point x="965" y="409"/>
			<point x="971" y="337" type="curve"/>
		</contour>
	</outline>
</glyph>
<glyph name="egrave" format="2">
	<unicode hex="00E8"/>
	<advance width="634"/>
	<outline>
		<component base="e"/>
		<contour>
			<point x="278" y="737" type="line"/>
			<point x="481" y="613" type="line"/>
			<point x="548" y="692" type="line"/>
			<point x="351" y="825" type="line"/>
		</contour>
	</outline>
</glyph>
<glyph name="eacute" format="2">
  <advance width="634"/>
  <unicode hex="00E9"/>
  <outline>
    <component base="e"/>
    <contour>
      <point x="390" y="613" type="line"/>
      <point x="639" y="733" type="line"/>
      <point x="602" y="825" type="line"/>
      <point x="353" y="691" type="line"/>
    </contour>
  </outline>
</glyph>
<glyph name="ecircumflex" format="2">
	<unicode hex="00EA"/>
	<advance width="634"/>
	<outline>
		<component base="e"/>
		<contour>
			<point x="241" y="630" type="line"/>
			<point x="388" y="630" type="line"/>
			<point x="454" y="694" type="line"/>
			<point x="495" y="630" type="line"/>
			<point x="640" y="630" type="line"/>
			<point x="520" y="768" type="line"/>
			<point x="413" y="768" type="line"/>
		</contour>
	</outline>
</glyph>
<glyph name="edieresis" format="2">
  <advance width="634"/>
  <unicode hex="00EB"/>
  <outline>
    <component base="e"/>
    <contour>
      <point x="270" y="630" type="line"/>
      <point x="403" y="630" type="line"/>
      <point x="427" y="763" type="line"/>
      <point x="294" y="763" type="line"/>
    </contour>
    <contour>
      <point x="480" y="630" type="line"/>
      <point x="613" y="630" type="line"/>
      <point x="637" y="763" type="line"/>
      <point x="504" y="763" type="line"/>
    </contour>
  </outline>
</glyph>
<glyph name="igrave" format="2">
	<unicode hex="00EC"/>
	<advance width="241"/>
	<outline>
		<contour>
			<point x="54" y="0" type="line"/>
			<point x="187" y="0" type="line"/>
			<point x="290" y="554" type="line"/>
			<point x="157" y="554" type="line"/>
		</contour>
		<contour>
			<point x="121" y="737" type="line"/>
			<point x="324" y="613" type="line"/>
			<point x="391" y="692" type="line"/>
			<point x="194" y="825" type="line"/>
		</contour>
	</outline>
</glyph>
<glyph name="eth" format="2">
	<unicode hex="00F0"/>
	<advance width="645"/>
	<outline>
		<contour>
			<point x="75" y="226" type="curve" smooth="yes"/>
			<point x="75" y="91"/>
			<point x="176" y="-13"/>
			<point x="321" y="-13" type="curve" smooth="yes"/>
			<point x="511" y="-13"/>
			<point x="675" y="155"/>
			<point x="675" y="343" type="curve" smooth="yes"/>
			<point x="675" y="477"/>
			<point x="596" y="575"/>
			<point x="508" y="665" type="curve"/>
			<point x="593" y="700" type="line"/>
			<point x="561" y="749" type="line"/>
			<point x="466" y="709" type="line"/>
			<point x="449" y="726"/>
			<point x="423" y="746"/>
			<point x="410" y="756" type="curve"/>
			<point x="301" y="721" type="line"/>
			<point x="320" y="704"/>
			<point x="323" y="701"/>
			<point x="360" y="664" type="curve"/>
			<point x="275" y="627" type="line"/>
			<point x="307" y="581" type="line"/>
			<point x="401" y="621" type="line"/>
			<point x="424" y="598"/>
			<point x="445" y="575"/>
			<point x="464" y="547" type="curve"/>
			<point x="437" y="553"/>
			<point x="415" y="556"/>
			<point x="398" y="556" type="curve" smooth="yes"/>
			<point x="229" y="556"/>
			<point x="75" y="393"/>
		</contour>
		<contour>
			<point x="210" y="245" type="curve" smooth="yes"/>
			<point x="210" y="344"/>
			<point x="300" y="445"/>
			<point x="402" y="445" type="curve" smooth="yes"/>
			<point x="482" y="445"/>
			<point x="537" y="387"/>
			<point x="537" y="309" type="curve" smooth="yes"/>
			<point x="537" y="207"/>
			<point x="446" y="109"/>
			<point x="342" y="109" type="curve" smooth="yes"/>
			<point x="264" y="109"/>
			<point x="210" y="168"/>
		</contour>
	</outline>
</glyph>
<glyph name="ntilde" format="2">
	<unicode hex="00F1"/>
	<advance width="598"/>
	<outline>
		<component base="n"/>
		<contour>
			<point x="297" y="636" type="line"/>
			<point x="339" y="659"/>
			<point x="346" y="661"/>
			<point x="372" y="661" type="curve" smooth="yes"/>
			<point x="389" y="661"/>
			<point x="412" y="655"/>
			<point x="423" y="649" type="curve" smooth="yes"/>
			<point x="436" y="642"/>
			<point x="465" y="636"/>
			<point x="480" y="636" type="curve" smooth="yes"/>
			<point x="515" y="636"/>
			<point x="545" y="652"/>
			<point x="584" y="691" type="curve"/>
			<point x="545" y="772" type="line"/>
			<point x="520" y="748"/>
			<point x="498" y="738"/>
			<point x="472" y="738" type="curve" smooth="yes"/>
			<point x="458" y="738"/>
			<point x="446" y="741"/>
			<point x="427" y="749" type="curve" smooth="yes"/>
			<point x="400" y="761"/>
			<point x="391" y="763"/>
			<point x="369" y="763" type="curve" smooth="yes"/>
			<point x="327" y="763"/>
			<point x="299" y="751"/>
			<point x="258" y="716" type="curve"/>
		</contour>
	</outline>
</glyph>
<glyph name="ograve" format="2">
	<unicode hex="00F2"/>
	<advance width="645"/>
	<outline>
		<component base="o"/>
		<contour>
			<point x="287" y="737" type="line"/>
			<point x="490" y="613" type="line"/>
			<point x="557" y="692" type="line"/>
			<point x="360" y="825" type="line"/>
		</contour>
	</outline>
</glyph>
<glyph name="oacute" format="2">
	<unicode hex="00F3"/>
	<advance width="645"/>
	<outline>
		<component base="o"/>
		<contour>
			<point x="382" y="613" type="line"/>
			<point x="631" y="733" type="line"/>
			<point x="594" y="825" type="line"/>
			<point x="345" y="691" type="line"/>
		</contour>
	</outline>
</glyph>
<glyph name="ocircumflex" format="2">
	<unicode hex="00F4"/>
	<advance width="645"/>
	<outline>
		<component base="o"/>
		<contour>
			<point x="240" y="630" type="line"/>
			<point x="387" y="630" type="line"/>
			<point x="453" y="694" type="line"/>
			<point x="494" y="630" type="line"/>
			<point x="639" y="630" type="line"/>
			<point x="519" y="768" type="line"/>
			<point x="412" y="768" type="line"/>
		</contour>
	</outline>
</glyph>
<glyph name="odieresis" format="2">
	<unicode hex="00F6"/>
	<advance width="645"/>
	<outline>
		<component base="o"/>
		<contour>
			<point x="268" y="630" type="line"/>
			<point x="401" y="630" type="line"/>
			<point x="425" y="763" type="line"/>
			<point x="292" y="763" type="line"/>
		</contour>
		<contour>
			<point x="478" y="630" type="line"/>
			<point x="611" y="630" type="line"/>
			<point x="635" y="763" type="line"/>
			<point x="502" y="763" type="line"/>
		</contour>
	</outline>
</glyph>
<glyph name="yacute" format="2">
	<unicode hex="00FD"/>
	<advance width="568"/>
	<outline>
		<contour>
			<point x="68" y="-185" type="line"/>
			<point x="211" y="-185" type="line"/>
			<point x="668" y="554" type="line"/>
			<point x="515" y="554" type="line"/>
			<point x="314" y="195" type="line"/>
			<point x="258" y="554" type="line"/>
			<point x="106" y="554" type="line"/>
			<point x="216" y="52" type="line"/>
		</contour>
		<contour>
			<point x="316" y="613" type="line"/>
			<point x="565" y="733" type="line"/>
			<point x="528" y="825" type="line"/>
			<point x="279" y="691" type="line"/>
		</contour>
	</outline>
</glyph>
<glyph name="thorn" format="2">
	<unicode hex="00FE"/>
	<advance width="662"/>
	<outline>
		<contour>
			<point x="20" y="-185" type="line"/>
			<point x="153" y="-185" type="line"/>
			<point x="198" y="59" type="line"/>
			<point x="232" y="11"/>
			<point x="287" y="-13"/>
			<point x="357" y="-13" type="curve" smooth="yes"/>
			<point x="517" y="-13"/>
			<point x="654" y="108"/>
			<point x="685" y="277" type="curve" smooth="yes"/>
			<point x="689" y="299"/>
			<point x="691" y="320"/>
			<point x="691" y="340" type="curve" smooth="yes"/>
			<point x="691" y="475"/>
			<point x="603" y="567"/>
			<point x="464" y="567" type="curve" smooth="yes"/>
			<point x="394" y="567"/>
			<point x="331" y="543"/>
			<point x="279" y="495" type="curve"/>
			<point x="324" y="739" type="line"/>
			<point x="191" y="739" type="line"/>
		</contour>
		<contour>
			<point x="227" y="242" type="curve" smooth="yes"/>
			<point x="227" y="253"/>
			<point x="228" y="265"/>
			<point x="230" y="277" type="curve" smooth="yes"/>
			<point x="248" y="372"/>
			<point x="330" y="445"/>
			<point x="420" y="445" type="curve" smooth="yes"/>
			<point x="501" y="445"/>
			<point x="555" y="390"/>
			<point x="555" y="312" type="curve" smooth="yes"/>
			<point x="555" y="301"/>
			<point x="553" y="289"/>
			<point x="551" y="277" type="curve" smooth="yes"/>
			<point x="533" y="182"/>
			<point x="451" y="109"/>
			<point x="361" y="109" type="curve" smooth="yes"/>
			<point x="280" y="109"/>
			<point x="227" y="164"/>
		</contour>
	</outline>
</glyph>
<glyph name="OE" format="2">
	<unicode hex="0152"/>
	<advance width="1058"/>
	<outline>
		<contour>
			<point x="645" y="0" type="line"/>
			<point x="1002" y="0" type="line"/>
			<point x="1026" y="131" type="line"/>
			<point x="808" y="131" type="line"/>
			<point x="840" y="303" type="line"/>
			<point x="1047" y="303" type="line"/>
			<point x="1071" y="434" type="line"/>
			<point x="864" y="434" type="line"/>
			<point x="897" y="608" type="line"/>
			<point x="1115" y="608" type="line"/>
			<point x="1139" y="739" type="line"/>
			<point x="782" y="739" type="line"/>
			<point x="767" y="657" type="line"/>
			<point x="723" y="721"/>
			<point x="651" y="752"/>
			<point x="550" y="752" type="curve" smooth="yes"/>
			<point x="335" y="752"/>
			<point x="145" y="588"/>
			<point x="104" y="368" type="curve" smooth="yes"/>
			<point x="99" y="342"/>
			<point x="97" y="316"/>
			<point x="97" y="292" type="curve" smooth="yes"/>
			<point x="97" y="114"/>
			<point x="223" y="-13"/>
			<point x="414" y="-13" type="curve" smooth="yes"/>
			<point x="507" y="-13"/>
			<point x="594" y="20"/>
			<point x="660" y="81" type="curve"/>
		</contour>
		<contour>
			<point x="237" y="316" type="curve" smooth="yes"/>
			<point x="237" y="332"/>
			<point x="239" y="349"/>
			<point x="242" y="366" type="curve" smooth="yes"/>
			<point x="269" y="509"/>
			<point x="391" y="620"/>
			<point x="522" y="620" type="curve" smooth="yes"/>
			<point x="646" y="620"/>
			<point x="724" y="542"/>
			<point x="724" y="424" type="curve" smooth="yes"/>
			<point x="724" y="406"/>
			<point x="722" y="387"/>
			<point x="718" y="368" type="curve" smooth="yes"/>
			<point x="691" y="224"/>
			<point x="573" y="119"/>
			<point x="436" y="119" type="curve" smooth="yes"/>
			<point x="317" y="119"/>
			<point x="237" y="201"/>
		</contour>
	</outline>
</glyph>
<glyph name="florin" format="2">
	<unicode hex="0192"/>
	<advance width="560"/>
	<outline>
		<contour>
			<point x="202" y="128" type="line" smooth="yes"/>
			<point x="174" y="49"/>
			<point x="126" y="-30"/>
			<point x="50" y="-30" type="curve" smooth="yes"/>
			<point x="39" y="-30"/>
			<point x="31" y="-29"/>
			<point x="18" y="-26" type="curve"/>
			<point x="-23" y="-142" type="line"/>
			<point x="-3" y="-147"/>
			<point x="10" y="-149"/>
			<point x="34" y="-149" type="curve" smooth="yes"/>
			<point x="206" y="-149"/>
			<point x="270" y="-39"/>
			<point x="322" y="106" type="curve" smooth="yes"/>
			<point x="451" y="470" type="line"/>
			<point x="544" y="470" type="line"/>
			<point x="584" y="585" type="line"/>
			<point x="492" y="585" type="line"/>
			<point x="505" y="620" type="line" smooth="yes"/>
			<point x="525" y="673"/>
			<point x="561" y="708"/>
			<point x="596" y="708" type="curve" smooth="yes"/>
			<point x="610" y="708"/>
			<point x="617" y="707"/>
			<point x="624" y="706" type="curve"/>
			<point x="666" y="820" type="line"/>
			<point x="655" y="822"/>
			<point x="641" y="823"/>
			<point x="629" y="823" type="curve" smooth="yes"/>
			<point x="485" y="823"/>
			<point x="423" y="731"/>
			<point x="375" y="611" type="curve" smooth="yes"/>
			<point x="365" y="585" type="line"/>
			<point x="271" y="585" type="line"/>
			<point x="231" y="470" type="line"/>
			<point x="325" y="470" type="line"/>
		</contour>
	</outline>
</glyph>
<glyph name="dotaccent" format="2">
  <advance width="261"/>
  <unicode hex="02D9"/>
  <outline>
    <contour>
      <point x="181" y="630" type="line"/>
      <point x="314" y="630" type="line"/>
      <point x="339" y="763" type="line"/>
      <point x="205" y="763" type="line"/>
    </contour>
  </outline>
</glyph>
<glyph name="tilde" format="2">
  <advance width="459"/>
  <unicode hex="02DC"/>
  <outline>
    <contour>
      <point x="236" y="636" type="line"/>
      <point x="278" y="659"/>
      <point x="285" y="661"/>
      <point x="311" y="661" type="curve" smooth="yes"/>
      <point x="328" y="661"/>
      <point x="337" y="659"/>
      <point x="362" y="649" type="curve" smooth="yes"/>
      <point x="386" y="640"/>
      <point x="404" y="636"/>
      <point x="419" y="636" type="curve" smooth="yes"/>
      <point x="454" y="636"/>
      <point x="484" y="652"/>
      <point x="523" y="691" type="curve"/>
      <point x="484" y="772" type="line"/>
      <point x="459" y="748"/>
      <point x="437" y="738"/>
      <point x="411" y="738" type="curve" smooth="yes"/>
      <point x="397" y="738"/>
      <point x="385" y="741"/>
      <point x="366" y="749" type="curve" smooth="yes"/>
      <point x="339" y="761"/>
      <point x="330" y="763"/>
      <point x="308" y="763" type="curve" smooth="yes"/>
      <point x="266" y="763"/>
      <point x="238" y="751"/>
      <point x="197" y="716" type="curve"/>
    </contour>
  </outline>
</glyph>
<glyph name="gravecomb" format="2">
  <unicode hex="0300"/>
  <outline>
    <contour>
      <point x="-358" y="737" type="line"/>
      <point x="-155" y="613" type="line"/>
      <point x="-87" y="692" type="line"/>
      <point x="-285" y="825" type="line"/>
    </contour>
  </outline>
</glyph>
<glyph name="dotaccentcomb" format="2">
  <unicode hex="0307"/>
  <outline>
    <contour>
      <point x="-272" y="630" type="line"/>
      <point x="-139" y="630" type="line"/>
      <point x="-114" y="763" type="line"/>
      <point x="-248" y="763" type="line"/>
    </contour>
  </outline>
</glyph>
<glyph name="hungarumlautcomb" format="2">
	<unicode hex="030B"/>
	<outline>
		<contour>
			<point x="-419" y="613" type="line"/>
			<point x="-173" y="745" type="line"/>
			<point x="-220" y="825" type="line"/>
			<point x="-457" y="682" type="line"/>
		</contour>
		<contour>
			<point x="-135" y="613" type="line"/>
			<point x="110" y="745" type="line"/>
			<point x="64" y="825" type="line"/>
			<point x="-174" y="682" type="line"/>
		</contour>
	</outline>
</glyph>
<glyph name="caroncomb" format="2">
	<unicode hex="030C"/>
	<outline>
		<contour>
			<point x="-258" y="630" type="line"/>
			<point x="-151" y="630" type="line"/>
			<point x="19" y="768" type="line"/>
			<point x="-126" y="768" type="line"/>
			<point x="-191" y="704" type="line"/>
			<point x="-233" y="768" type="line"/>
			<point x="-380" y="768" type="line"/>
		</contour>
	</outline>
</glyph>
<glyph name="dblgravecomb" format="2">
  <unicode hex="030F"/>
  <outline>
    <contour>
      <point x="-450" y="914" type="line"/>
      <point x="-247" y="790" type="line"/>
      <point x="-179" y="869" type="line"/>
      <point x="-376" y="1002" type="line"/>
    </contour>
    <contour>
      <point x="-179" y="914" type="line"/>
      <point x="24" y="790" type="line"/>
      <point x="92" y="869" type="line"/>
      <point x="-105" y="1002" type="line"/>
    </contour>
  </outline>
</glyph>
<glyph name="Djecyr" format="2">
  <advance width="693"/>
  <unicode hex="0402"/>
  <outline>
    <contour>
      <point x="154" y="0" type="line"/>
      <point x="291" y="0" type="line"/>
      <point x="350" y="319" type="line"/>
      <point x="408" y="319" type="line" smooth="yes"/>
      <point x="496" y="319"/>
      <point x="572" y="309"/>
      <point x="572" y="245" type="curve" smooth="yes"/>
      <point x="572" y="169"/>
      <point x="492" y="118"/>
      <point x="422" y="118" type="curve"/>
      <point x="398" y="-13" type="line"/>
      <point x="561" y="-13"/>
      <point x="712" y="98"/>
      <point x="712" y="269" type="curve" smooth="yes"/>
      <point x="712" y="445"/>
      <point x="556" y="450"/>
      <point x="423" y="450" type="curve" smooth="yes"/>
      <point x="374" y="450" type="line"/>
      <point x="404" y="608" type="line"/>
      <point x="581" y="608" type="line"/>
      <point x="605" y="739" type="line"/>
      <point x="144" y="739" type="line"/>
      <point x="120" y="608" type="line"/>
      <point x="267" y="608" type="line"/>
    </contour>
  </outline>
</glyph>
<glyph name="Gjecyr" format="2">
	<unicode hex="0403"/>
	<advance width="467"/>
	<outline>
		<contour>
			<point x="325" y="788" type="line"/>
			<point x="574" y="908" type="line"/>
			<point x="537" y="1000" type="line"/>
			<point x="288" y="866" type="line"/>
		</contour>
		<contour>
			<point x="71" y="0" type="line"/>
			<point x="208" y="0" type="line"/>
			<point x="321" y="608" type="line"/>
			<point x="573" y="608" type="line"/>
			<point x="597" y="739" type="line"/>
			<point x="208" y="739" type="line"/>
		</contour>
	</outline>
</glyph>
<glyph name="Eukrcyr" format="2">
  <advance width="802"/>
  <unicode hex="0404"/>
  <outline>
    <contour>
      <point x="278" y="438" type="line"/>
      <point x="326" y="546"/>
      <point x="414" y="620"/>
      <point x="534" y="620" type="curve" smooth="yes"/>
      <point x="620" y="620"/>
      <point x="673" y="592"/>
      <point x="711" y="527" type="curve"/>
      <point x="864" y="527" type="line"/>
      <point x="824" y="674"/>
      <point x="708" y="752"/>
      <point x="555" y="752" type="curve" smooth="yes"/>
      <point x="282" y="752"/>
      <point x="98" y="571"/>
      <point x="98" y="301" type="curve" smooth="yes"/>
      <point x="98" y="121"/>
      <point x="231" y="-13"/>
      <point x="423" y="-13" type="curve" smooth="yes"/>
      <point x="575" y="-13"/>
      <point x="721" y="71"/>
      <point x="804" y="206" type="curve"/>
      <point x="643" y="206" type="line"/>
      <point x="570" y="143"/>
      <point x="515" y="119"/>
      <point x="444" y="119" type="curve" smooth="yes"/>
      <point x="329" y="119"/>
      <point x="261" y="199"/>
      <point x="253" y="307" type="curve"/>
      <point x="603" y="307" type="line"/>
      <point x="627" y="438" type="line"/>
    </contour>
  </outline>
</glyph>
<glyph name="Jecyr" format="2">
  <advance width="494"/>
  <unicode hex="0408"/>
  <outline>
    <contour>
      <point x="50" y="175" type="line"/>
      <point x="49" y="162"/>
      <point x="48" y="150"/>
      <point x="48" y="139" type="curve" smooth="yes"/>
      <point x="48" y="104"/>
      <point x="56" y="81"/>
      <point x="73" y="57" type="curve" smooth="yes"/>
      <point x="103" y="13"/>
      <point x="157" y="-13"/>
      <point x="221" y="-13" type="curve" smooth="yes"/>
      <point x="345" y="-13"/>
      <point x="436" y="73"/>
      <point x="462" y="212" type="curve" smooth="yes"/>
      <point x="560" y="739" type="line"/>
      <point x="423" y="739" type="line"/>
      <point x="400.55" y="617.955"/>
      <point x="341.086" y="297.34"/>
      <point x="326" y="216" type="curve" smooth="yes"/>
      <point x="314" y="151"/>
      <point x="286" y="119"/>
      <point x="242" y="119" type="curve" smooth="yes"/>
      <point x="208" y="119"/>
      <point x="189" y="138"/>
      <point x="187" y="175" type="curve"/>
    </contour>
  </outline>
</glyph>
<glyph name="Kjecyr" format="2">
	<unicode hex="040C"/>
	<advance width="614"/>
	<outline>
		<contour>
			<point x="383" y="788" type="line"/>
			<point x="632" y="908" type="line"/>
			<point x="595" y="1000" type="line"/>
			<point x="346" y="866" type="line"/>
		</contour>
		<contour>
			<point x="71" y="0" type="line"/>
			<point x="208" y="0" type="line"/>
			<point x="268" y="325" type="line"/>
			<point x="437" y="0" type="line"/>
			<point x="602" y="0" type="line"/>
			<point x="394" y="376" type="line"/>
			<point x="739" y="739" type="line"/>
			<point x="574" y="739" type="line"/>
			<point x="286" y="420" type="line"/>
			<point x="345" y="739" type="line"/>
			<point x="208" y="739" type="line"/>
		</contour>
	</outline>
</glyph>
<glyph name="Igravecyr" format="2">
	<unicode hex="040D"/>
	<advance width="738"/>
	<outline>
		<contour>
			<point x="334" y="912" type="line"/>
			<point x="537" y="788" type="line"/>
			<point x="605" y="867" type="line"/>
			<point x="407" y="1000" type="line"/>
		</contour>
		<contour>
			<point x="71" y="0" type="line"/>
			<point x="210" y="0" type="line"/>
			<point x="626" y="512" type="line"/>
			<point x="531" y="0" type="line"/>
			<point x="667" y="0" type="line"/>
			<point x="804" y="739" type="line"/>
			<point x="665" y="739" type="line"/>
			<point x="249" y="227" type="line"/>
			<point x="344" y="739" type="line"/>
			<point x="208" y="739" type="line"/>
		</contour>
	</outline>
</glyph>
<glyph name="Icyr" format="2">
	<unicode hex="0418"/>
	<advance width="738"/>
	<outline>
		<contour>
			<point x="71" y="0" type="line"/>
			<point x="210" y="0" type="line"/>
			<point x="626" y="512" type="line"/>
			<point x="531" y="0" type="line"/>
			<point x="667" y="0" type="line"/>
			<point x="804" y="739" type="line"/>
			<point x="665" y="739" type="line"/>
			<point x="249" y="227" type="line"/>
			<point x="344" y="739" type="line"/>
			<point x="208" y="739" type="line"/>
		</contour>
	</outline>
</glyph>
<glyph name="Ishortcyr" format="2">
	<unicode hex="0419"/>
	<advance width="738"/>
	<outline>
		<contour>
			<point x="366" y="937" type="line"/>
			<point x="366" y="842"/>
			<point x="427" y="796"/>
			<point x="517" y="796" type="curve" smooth="yes"/>
			<point x="607" y="796"/>
			<point x="686" y="842"/>
			<point x="720" y="937" type="curve"/>
			<point x="605" y="937" type="line"/>
			<point x="595" y="882"/>
			<point x="570" y="861"/>
			<point x="529" y="861" type="curve" smooth="yes"/>
			<point x="496" y="861"/>
			<point x="478" y="874"/>
			<point x="478" y="909" type="curve" smooth="yes"/>
			<point x="478" y="917"/>
			<point x="479" y="927"/>
			<point x="481" y="937" type="curve"/>
		</contour>
		<contour>
			<point x="71" y="0" type="line"/>
			<point x="210" y="0" type="line"/>
			<point x="626" y="512" type="line"/>
			<point x="531" y="0" type="line"/>
			<point x="667" y="0" type="line"/>
			<point x="804" y="739" type="line"/>
			<point x="665" y="739" type="line"/>
			<point x="249" y="227" type="line"/>
			<point x="344" y="739" type="line"/>
			<point x="208" y="739" type="line"/>
		</contour>
	</outline>
</glyph>
<glyph name="Checyr" format="2">
	<unicode hex="0427"/>
	<advance width="627"/>
	<outline>
		<contour>
			<point x="419" y="0" type="line"/>
			<point x="556" y="0" type="line"/>
			<point x="693" y="739" type="line"/>
			<point x="556" y="739" type="line"/>
			<point x="495" y="409" type="line"/>
			<point x="457" y="401"/>
			<point x="422" y="398"/>
			<point x="370" y="398" type="curve" smooth="yes"/>
			<point x="306" y="398"/>
			<point x="279" y="421"/>
			<point x="279" y="476" type="curve" smooth="yes"/>
			<point x="279" y="490"/>
			<point x="280" y="506"/>
			<point x="284" y="525" type="curve" smooth="yes"/>
			<point x="324" y="739" type="line"/>
			<point x="187" y="739" type="line"/>
			<point x="141" y="490" type="line" smooth="yes"/>
			<point x="136" y="465"/>
			<point x="134" y="443"/>
			<point x="134" y="423" type="curve" smooth="yes"/>
			<point x="134" y="302"/>
			<point x="214" y="267"/>
			<point x="321" y="267" type="curve" smooth="yes"/>
			<point x="368" y="267"/>
			<point x="418" y="274"/>
			<point x="471" y="283" type="curve"/>
		</contour>
	</outline>
</glyph>
<glyph name="becyr" format="2">
	<unicode hex="0431"/>
	<advance width="651"/>
	<outline>
		<contour>
			<point x="91" y="217" type="curve" smooth="yes"/>
			<point x="91" y="76"/>
			<point x="181" y="-13"/>
			<point x="327" y="-13" type="curve" smooth="yes"/>
			<point x="505" y="-13"/>
			<point x="678" y="141"/>
			<point x="678" y="323" type="curve" smooth="yes"/>
			<point x="678" y="456"/>
			<point x="576" y="556"/>
			<point x="433" y="556" type="curve" smooth="yes"/>
			<point x="338" y="556"/>
			<point x="254" y="493"/>
			<point x="224" y="451" type="curve"/>
			<point x="221.084" y="451.4" type="line"/>
			<point x="246" y="577"/>
			<point x="327" y="645"/>
			<point x="472" y="657" type="curve" smooth="yes"/>
			<point x="711" y="677" type="line"/>
			<point x="734" y="796" type="line"/>
			<point x="489" y="777" type="line" smooth="yes"/>
			<point x="278" y="761"/>
			<point x="157" y="638"/>
			<point x="116" y="415" type="curve" smooth="yes"/>
			<point x="103" y="345"/>
			<point x="91" y="277"/>
		</contour>
		<contour>
			<point x="216" y="242" type="curve" smooth="yes"/>
			<point x="216" y="341"/>
			<point x="307" y="437"/>
			<point x="407" y="437" type="curve" smooth="yes"/>
			<point x="487" y="437"/>
			<point x="543" y="381"/>
			<point x="543" y="304" type="curve" smooth="yes"/>
			<point x="543" y="202"/>
			<point x="450" y="109"/>
			<point x="348" y="109" type="curve" smooth="yes"/>
			<point x="270" y="109"/>
			<point x="216" y="165"/>
		</contour>
	</outline>
</glyph>
<glyph name="vecyr" format="2">
	<unicode hex="0432"/>
	<advance width="541"/>
	<outline>
		<contour>
			<point x="54" y="0" type="line"/>
			<point x="317" y="0" type="line" smooth="yes"/>
			<point x="423" y="0"/>
			<point x="544" y="85"/>
			<point x="544" y="200" type="curve" smooth="yes"/>
			<point x="544" y="247"/>
			<point x="512" y="275"/>
			<point x="479" y="288" type="curve"/>
			<point x="535" y="309"/>
			<point x="566" y="362"/>
			<point x="566" y="420" type="curve" smooth="yes"/>
			<point x="566" y="510"/>
			<point x="493" y="554"/>
			<point x="385" y="554" type="curve" smooth="yes"/>
			<point x="157" y="554" type="line"/>
		</contour>
		<contour>
			<point x="209" y="121" type="line"/>
			<point x="231" y="237" type="line"/>
			<point x="352" y="237" type="line" smooth="yes"/>
			<point x="387" y="237"/>
			<point x="409" y="218"/>
			<point x="409" y="190" type="curve" smooth="yes"/>
			<point x="409" y="147"/>
			<point x="371" y="121"/>
			<point x="330" y="121" type="curve" smooth="yes"/>
		</contour>
		<contour>
			<point x="249" y="334" type="line"/>
			<point x="267" y="433" type="line"/>
			<point x="361" y="433" type="line" smooth="yes"/>
			<point x="411" y="433"/>
			<point x="436" y="417"/>
			<point x="436" y="392" type="curve" smooth="yes"/>
			<point x="436" y="345"/>
			<point x="379" y="334"/>
			<point x="343" y="334" type="curve" smooth="yes"/>
		</contour>
	</outline>
</glyph>
<glyph name="decyr" format="2">
	<unicode hex="0434"/>
	<advance width="676"/>
	<outline>
		<contour>
			<point x="-14" y="-132" type="line"/>
			<point x="82" y="-132" type="line"/>
			<point x="134" y="0" type="line"/>
			<point x="543" y="0" type="line"/>
			<point x="547" y="-132" type="line"/>
			<point x="642" y="-132" type="line"/>
			<point x="688" y="121" type="line"/>
			<point x="603" y="121" type="line"/>
			<point x="499" y="554" type="line"/>
			<point x="383" y="554" type="line"/>
			<point x="117" y="121" type="line"/>
			<point x="32" y="121" type="line"/>
		</contour>
		<contour>
			<point x="255" y="121" type="line"/>
			<point x="407" y="371" type="line"/>
			<point x="465" y="121" type="line"/>
		</contour>
	</outline>
</glyph>
<glyph name="zecyr" format="2">
	<unicode hex="0437"/>
	<advance width="478"/>
	<outline>
		<contour>
			<point x="56" y="175" type="line"/>
			<point x="55" y="168"/>
			<point x="55" y="160"/>
			<point x="55" y="153" type="curve" smooth="yes"/>
			<point x="55" y="61"/>
			<point x="125" y="-13"/>
			<point x="233" y="-13" type="curve" smooth="yes"/>
			<point x="373" y="-13"/>
			<point x="480" y="76"/>
			<point x="480" y="192" type="curve" smooth="yes"/>
			<point x="480" y="237"/>
			<point x="448" y="279"/>
			<point x="401" y="292" type="curve"/>
			<point x="462" y="305"/>
			<point x="502" y="362"/>
			<point x="502" y="423" type="curve" smooth="yes"/>
			<point x="502" y="506"/>
			<point x="435" y="568"/>
			<point x="340" y="568" type="curve" smooth="yes"/>
			<point x="234" y="568"/>
			<point x="140" y="492"/>
			<point x="115" y="393" type="curve"/>
			<point x="240" y="393" type="line"/>
			<point x="252" y="423"/>
			<point x="280" y="447"/>
			<point x="318" y="447" type="curve" smooth="yes"/>
			<point x="350" y="447"/>
			<point x="371" y="427"/>
			<point x="371" y="402" type="curve" smooth="yes"/>
			<point x="371" y="344"/>
			<point x="316" y="331"/>
			<point x="269" y="331" type="curve" smooth="yes"/>
			<point x="259" y="331" type="line"/>
			<point x="243" y="243" type="line"/>
			<point x="254" y="243" type="line" smooth="yes"/>
			<point x="308" y="243"/>
			<point x="346" y="234"/>
			<point x="346" y="192" type="curve" smooth="yes"/>
			<point x="346" y="143"/>
			<point x="302" y="109"/>
			<point x="255" y="109" type="curve" smooth="yes"/>
			<point x="214" y="109"/>
			<point x="188" y="134"/>
			<point x="188" y="169" type="curve" smooth="yes"/>
			<point x="188" y="175" type="line"/>
		</contour>
	</outline>
</glyph>
<glyph name="ishortcyr" format="2">
	<unicode hex="0439"/>
	<advance width="623"/>
	<outline>
		<contour>
			<point x="285" y="746" type="line"/>
			<point x="285" y="656"/>
			<point x="335" y="616"/>
			<point x="426" y="616" type="curve" smooth="yes"/>
			<point x="517" y="616"/>
			<point x="583" y="656"/>
			<point x="615" y="746" type="curve"/>
			<point x="514" y="746" type="line"/>
			<point x="505" y="696"/>
			<point x="482" y="675"/>
			<point x="437" y="675" type="curve" smooth="yes"/>
			<point x="400" y="675"/>
			<point x="384" y="689"/>
			<point x="384" y="721" type="curve" smooth="yes"/>
			<point x="384" y="728"/>
			<point x="384" y="737"/>
			<point x="386" y="746" type="curve"/>
		</contour>
		<contour>
			<point x="54" y="0" type="line"/>
			<point x="189" y="0" type="line"/>
			<point x="505" y="366" type="line"/>
			<point x="437" y="0" type="line"/>
			<point x="569" y="0" type="line"/>
			<point x="672" y="554" type="line"/>
			<point x="537" y="554" type="line"/>
			<point x="221" y="188" type="line"/>
			<point x="289" y="554" type="line"/>
			<point x="157" y="554" type="line"/>
		</contour>
	</outline>
</glyph>
<glyph name="emcyr" format="2">
	<unicode hex="043C"/>
	<advance width="746"/>
	<outline>
		<contour>
			<point x="54" y="0" type="line"/>
			<point x="187" y="0" type="line"/>
			<point x="255" y="366" type="line"/>
			<point x="355" y="115" type="line"/>
			<point x="433" y="115" type="line"/>
			<point x="627" y="366" type="line"/>
			<point x="559" y="0" type="line"/>
			<point x="692" y="0" type="line"/>
			<point x="795" y="554" type="line"/>
			<point x="643" y="554" type="line"/>
			<point x="423" y="270" type="line"/>
			<point x="309" y="554" type="line"/>
			<point x="157" y="554" type="line"/>
		</contour>
	</outline>
</glyph>
<glyph name="ereversedcyr" format="2">
	<unicode hex="044D"/>
	<advance width="619"/>
	<outline>
		<contour>
			<point x="57" y="167" type="line"/>
			<point x="84" y="52"/>
			<point x="168" y="-13"/>
			<point x="293" y="-13" type="curve" smooth="yes"/>
			<point x="474" y="-13"/>
			<point x="648" y="148"/>
			<point x="648" y="332" type="curve" smooth="yes"/>
			<point x="648" y="468"/>
			<point x="549" y="567"/>
			<point x="404" y="567" type="curve" smooth="yes"/>
			<point x="272" y="567"/>
			<point x="161" y="491"/>
			<point x="97" y="384" type="curve"/>
			<point x="250" y="384" type="line"/>
			<point x="285" y="426"/>
			<point x="327" y="445"/>
			<point x="381" y="445" type="curve" smooth="yes"/>
			<point x="446" y="445"/>
			<point x="492" y="412"/>
			<point x="507" y="359" type="curve" smooth="yes"/>
			<point x="509" y="352"/>
			<point x="510" y="345"/>
			<point x="511" y="337" type="curve"/>
			<point x="276" y="337" type="line"/>
			<point x="255" y="220" type="line"/>
			<point x="489" y="220" type="line"/>
			<point x="455" y="154"/>
			<point x="388" y="109"/>
			<point x="316" y="109" type="curve" smooth="yes"/>
			<point x="267" y="109"/>
			<point x="236" y="127"/>
			<point x="212" y="167" type="curve"/>
		</contour>
	</outline>
</glyph>
<glyph name="yucyr" format="2">
	<unicode hex="044E"/>
	<advance width="871"/>
	<outline>
		<contour>
			<point x="428" y="244" type="curve" smooth="yes"/>
			<point x="428" y="346"/>
			<point x="521" y="449"/>
			<point x="625" y="449" type="curve" smooth="yes"/>
			<point x="707" y="449"/>
			<point x="763" y="390"/>
			<point x="763" y="310" type="curve" smooth="yes"/>
			<point x="763" y="205"/>
			<point x="670" y="105"/>
			<point x="563" y="105" type="curve" smooth="yes"/>
			<point x="484" y="105"/>
			<point x="428" y="165"/>
		</contour>
		<contour>
			<point x="54" y="0" type="line"/>
			<point x="187" y="0" type="line"/>
			<point x="228" y="219" type="line"/>
			<point x="293" y="219" type="line"/>
			<point x="293" y="211"/>
			<point x="293" y="203"/>
			<point x="294" y="195" type="curve" smooth="yes"/>
			<point x="308" y="66"/>
			<point x="415" y="-17"/>
			<point x="542" y="-17" type="curve" smooth="yes"/>
			<point x="723" y="-17"/>
			<point x="899" y="145"/>
			<point x="899" y="329" type="curve" smooth="yes"/>
			<point x="899" y="466"/>
			<point x="798" y="571"/>
			<point x="653" y="571" type="curve" smooth="yes"/>
			<point x="508" y="571"/>
			<point x="370" y="473"/>
			<point x="316" y="340" type="curve"/>
			<point x="250" y="340" type="line"/>
			<point x="290" y="554" type="line"/>
			<point x="157" y="554" type="line"/>
		</contour>
	</outline>
</glyph>
<glyph name="iegravecyr" format="2">
  <advance width="634"/>
  <unicode hex="0450"/>
  <outline>
    <contour>
      <point x="477" y="164" type="line"/>
      <point x="436" y="124"/>
      <point x="400" y="109"/>
      <point x="345" y="109" type="curve" smooth="yes"/>
      <point x="266" y="109"/>
      <point x="216" y="151"/>
      <point x="212" y="218" type="curve"/>
      <point x="280.527" y="218"/>
      <point x="571.939" y="218"/>
      <point x="641" y="218" type="curve"/>
      <point x="649" y="237"/>
      <point x="652" y="249"/>
      <point x="656" y="269" type="curve" smooth="yes"/>
      <point x="660" y="291"/>
      <point x="662" y="312"/>
      <point x="662" y="332" type="curve" smooth="yes"/>
      <point x="662" y="471"/>
      <point x="569" y="567"/>
      <point x="425" y="567" type="curve" smooth="yes"/>
      <point x="262" y="567"/>
      <point x="109" y="438"/>
      <point x="79" y="275" type="curve" smooth="yes"/>
      <point x="76" y="257"/>
      <point x="74" y="239"/>
      <point x="74" y="222" type="curve" smooth="yes"/>
      <point x="74" y="86"/>
      <point x="176" y="-13"/>
      <point x="326" y="-13" type="curve" smooth="yes"/>
      <point x="417" y="-13"/>
      <point x="493" y="19"/>
      <point x="564" y="87" type="curve" smooth="yes"/>
      <point x="590" y="113"/>
      <point x="608" y="136"/>
      <point x="622" y="164" type="curve"/>
    </contour>
    <contour>
      <point x="230" y="335" type="line"/>
      <point x="264" y="407"/>
      <point x="325" y="445"/>
      <point x="404" y="445" type="curve" smooth="yes"/>
      <point x="486" y="445"/>
      <point x="533" y="406"/>
      <point x="537" y="335" type="curve"/>
    </contour>
    <contour>
      <point x="278" y="737" type="line"/>
      <point x="481" y="613" type="line"/>
      <point x="548" y="692" type="line"/>
      <point x="351" y="825" type="line"/>
    </contour>
  </outline>
</glyph>
<glyph name="djecyr" format="2">
	<unicode hex="0452"/>
	<advance width="675"/>
	<outline>
		<contour>
			<point x="132" y="0" type="line"/>
			<point x="265" y="0" type="line"/>
			<point x="299" y="183" type="line" smooth="yes"/>
			<point x="314" y="266"/>
			<point x="346" y="347"/>
			<point x="446" y="347" type="curve" smooth="yes"/>
			<point x="505" y="347"/>
			<point x="532" y="322"/>
			<point x="532" y="258" type="curve" smooth="yes"/>
			<point x="532" y="238"/>
			<point x="529" y="213"/>
			<point x="524" y="185" type="curve" smooth="yes"/>
			<point x="492" y="13" type="line" smooth="yes"/>
			<point x="483" y="-35"/>
			<point x="439" y="-64"/>
			<point x="388" y="-64" type="curve"/>
			<point x="366" y="-185" type="line"/>
			<point x="474" y="-185"/>
			<point x="603" y="-106"/>
			<point x="623" y="0" type="curve" smooth="yes"/>
			<point x="663" y="215" type="line" smooth="yes"/>
			<point x="670" y="251"/>
			<point x="673" y="280"/>
			<point x="673" y="305" type="curve" smooth="yes"/>
			<point x="673" y="412"/>
			<point x="600" y="470"/>
			<point x="493" y="470" type="curve" smooth="yes"/>
			<point x="435" y="470"/>
			<point x="389" y="454"/>
			<point x="342" y="418" type="curve"/>
			<point x="368" y="554" type="line"/>
			<point x="508" y="554" type="line"/>
			<point x="529" y="671" type="line"/>
			<point x="389" y="671" type="line"/>
			<point x="402" y="739" type="line"/>
			<point x="269" y="739" type="line"/>
			<point x="256" y="671" type="line"/>
			<point x="137" y="671" type="line"/>
			<point x="116" y="554" type="line"/>
			<point x="235" y="554" type="line"/>
		</contour>
	</outline>
</glyph>
<glyph name="gjecyr" format="2">
  <advance width="386"/>
  <unicode hex="0453"/>
  <outline>
    <contour>
      <point x="271" y="613" type="line"/>
      <point x="520" y="733" type="line"/>
      <point x="483" y="825" type="line"/>
      <point x="234" y="691" type="line"/>
    </contour>
    <contour>
      <point x="54" y="0" type="line"/>
      <point x="187" y="0" type="line"/>
      <point x="267" y="433" type="line"/>
      <point x="448" y="433" type="line"/>
      <point x="471" y="554" type="line"/>
      <point x="157" y="554" type="line"/>
    </contour>
  </outline>
</glyph>
<glyph name="jecyr" format="2">
	<unicode hex="0458"/>
	<advance width="255"/>
	<outline>
		<contour>
			<point x="-21" y="-185" type="line"/>
			<point x="30" y="-185"/>
			<point x="78" y="-168"/>
			<point x="117" y="-137" type="curve" smooth="yes"/>
			<point x="165" y="-99"/>
			<point x="193" y="-46"/>
			<point x="208" y="37" type="curve" smooth="yes"/>
			<point x="304" y="554" type="line"/>
			<point x="171" y="554" type="line"/>
			<point x="75" y="40" type="line" smooth="yes"/>
			<point x="61" y="-38"/>
			<point x="55" y="-47"/>
			<point x="3" y="-56" type="curve"/>
		</contour>
		<contour>
			<point x="182" y="614" type="line"/>
			<point x="315" y="614" type="line"/>
			<point x="338" y="739" type="line"/>
			<point x="205" y="739" type="line"/>
		</contour>
	</outline>
</glyph>
<glyph name="kjecyr" format="2">
  <advance width="554"/>
  <unicode hex="045C"/>
  <outline>
    <contour>
      <point x="365" y="613" type="line"/>
      <point x="614" y="733" type="line"/>
      <point x="577" y="825" type="line"/>
      <point x="328" y="691" type="line"/>
    </contour>
    <contour>
      <point x="54" y="0" type="line"/>
      <point x="187" y="0" type="line"/>
      <point x="234" y="255" type="line"/>
      <point x="379" y="0" type="line"/>
      <point x="552" y="0" type="line"/>
      <point x="371" y="279" type="line"/>
      <point x="643" y="554" type="line"/>
      <point x="482" y="554" type="line"/>
      <point x="242" y="299" type="line"/>
      <point x="290" y="554" type="line"/>
      <point x="157" y="554" type="line"/>
    </contour>
  </outline>
</glyph>
<glyph name="igravecyr" format="2">
	<unicode hex="045D"/>
	<advance width="623"/>
	<outline>
		<contour>
			<point x="276" y="737" type="line"/>
			<point x="479" y="613" type="line"/>
			<point x="547" y="692" type="line"/>
			<point x="349" y="825" type="line"/>
		</contour>
		<contour>
			<point x="54" y="0" type="line"/>
			<point x="189" y="0" type="line"/>
			<point x="505" y="366" type="line"/>
			<point x="437" y="0" type="line"/>
			<point x="569" y="0" type="line"/>
			<point x="672" y="554" type="line"/>
			<point x="537" y="554" type="line"/>
			<point x="221" y="188" type="line"/>
			<point x="289" y="554" type="line"/>
			<point x="157" y="554" type="line"/>
		</contour>
	</outline>
</glyph>
<glyph name="ushortcyr" format="2">
	<unicode hex="045E"/>
	<advance width="568"/>
	<outline>
		<contour>
			<point x="257" y="746" type="line"/>
			<point x="257" y="656"/>
			<point x="307" y="616"/>
			<point x="398" y="616" type="curve" smooth="yes"/>
			<point x="489" y="616"/>
			<point x="555" y="656"/>
			<point x="587" y="746" type="curve"/>
			<point x="486" y="746" type="line"/>
			<point x="477" y="696"/>
			<point x="454" y="675"/>
			<point x="409" y="675" type="curve" smooth="yes"/>
			<point x="372" y="675"/>
			<point x="356" y="689"/>
			<point x="356" y="721" type="curve" smooth="yes"/>
			<point x="356" y="728"/>
			<point x="356" y="737"/>
			<point x="358" y="746" type="curve"/>
		</contour>
		<contour>
			<point x="68" y="-185" type="line"/>
			<point x="211" y="-185" type="line"/>
			<point x="668" y="554" type="line"/>
			<point x="515" y="554" type="line"/>
			<point x="314" y="195" type="line"/>
			<point x="258" y="554" type="line"/>
			<point x="106" y="554" type="line"/>
			<point x="216" y="52" type="line"/>
		</contour>
	</outline>
</glyph>
<glyph name="dzhecyr" format="2">
	<unicode hex="045F"/>
	<advance width="618"/>
	<outline>
		<contour>
			<point x="54" y="0" type="line"/>
			<point x="236" y="0" type="line"/>
			<point x="237" y="-139" type="line"/>
			<point x="329" y="-139" type="line"/>
			<point x="382" y="0" type="line"/>
			<point x="564" y="0" type="line"/>
			<point x="667" y="554" type="line"/>
			<point x="534" y="554" type="line"/>
			<point x="453" y="121" type="line"/>
			<point x="209" y="121" type="line"/>
			<point x="290" y="554" type="line"/>
			<point x="157" y="554" type="line"/>
		</contour>
	</outline>
</glyph>
<glyph name="yatcyr" format="2">
  <advance width="592"/>
  <unicode hex="0463"/>
  <outline>
    <contour>
      <point x="134" y="0" type="line"/>
      <point x="378" y="0" type="line" smooth="yes"/>
      <point x="493" y="0"/>
      <point x="585" y="81"/>
      <point x="603" y="179" type="curve" smooth="yes"/>
      <point x="605" y="190"/>
      <point x="606" y="201"/>
      <point x="606" y="212" type="curve" smooth="yes"/>
      <point x="606" y="294"/>
      <point x="546" y="357"/>
      <point x="444" y="357" type="curve" smooth="yes"/>
      <point x="333" y="357" type="line"/>
      <point x="351" y="453" type="line"/>
      <point x="477" y="453" type="line"/>
      <point x="499" y="574" type="line"/>
      <point x="373" y="574" type="line"/>
      <point x="404" y="739" type="line"/>
      <point x="271" y="739" type="line"/>
      <point x="240" y="574" type="line"/>
      <point x="124" y="574" type="line"/>
      <point x="102" y="453" type="line"/>
      <point x="218" y="453" type="line"/>
    </contour>
    <contour>
      <point x="289" y="121" type="line"/>
      <point x="311" y="236" type="line"/>
      <point x="413" y="236" type="line" smooth="yes"/>
      <point x="448" y="236"/>
      <point x="470" y="218"/>
      <point x="470" y="190" type="curve" smooth="yes"/>
      <point x="470" y="186"/>
      <point x="470" y="183"/>
      <point x="469" y="179" type="curve"/>
      <point x="463" y="144"/>
      <point x="431" y="121"/>
      <point x="391" y="121" type="curve" smooth="yes"/>
    </contour>
  </outline>
</glyph>
<glyph name="eiotifiedcyr" format="2">
  <advance width="853"/>
  <unicode hex="0465"/>
  <outline>
    <contour>
      <point x="49" y="0" type="line"/>
      <point x="182" y="0" type="line"/>
      <point x="223" y="220" type="line"/>
      <point x="297" y="220" type="line"/>
      <point x="297" y="215"/>
      <point x="298" y="210"/>
      <point x="298" y="205" type="curve"/>
      <point x="307" y="79"/>
      <point x="406" y="-13"/>
      <point x="544" y="-13" type="curve" smooth="yes"/>
      <point x="669" y="-13"/>
      <point x="777" y="52"/>
      <point x="846" y="167" type="curve"/>
      <point x="692" y="167" type="line"/>
      <point x="654" y="127"/>
      <point x="616" y="109"/>
      <point x="567" y="109" type="curve" smooth="yes"/>
      <point x="495" y="109"/>
      <point x="445" y="154"/>
      <point x="435" y="220" type="curve"/>
      <point x="669" y="220" type="line"/>
      <point x="691" y="337" type="line"/>
      <point x="456" y="337" type="line"/>
      <point x="488" y="403"/>
      <point x="553" y="445"/>
      <point x="626" y="445" type="curve" smooth="yes"/>
      <point x="680" y="445"/>
      <point x="715" y="426"/>
      <point x="734" y="384" type="curve"/>
      <point x="887" y="384" type="line"/>
      <point x="863" y="491"/>
      <point x="780" y="567"/>
      <point x="648" y="567" type="curve" smooth="yes"/>
      <point x="505" y="567"/>
      <point x="371" y="470"/>
      <point x="319" y="337" type="curve"/>
      <point x="245" y="337" type="line"/>
      <point x="285" y="554" type="line"/>
      <point x="152" y="554" type="line"/>
    </contour>
  </outline>
</glyph>
<glyph name="yuslittleiotifiedcyr" format="2">
	<unicode hex="0469"/>
	<advance width="866"/>
	<outline>
		<contour>
			<point x="54" y="0" type="line"/>
			<point x="187" y="0" type="line"/>
			<point x="206" y="101" type="line"/>
			<point x="324" y="101" type="line"/>
			<point x="263" y="0" type="line"/>
			<point x="405" y="0" type="line"/>
			<point x="458" y="93" type="line"/>
			<point x="492" y="72" type="line"/>
			<point x="479" y="-1" type="line"/>
			<point x="612" y="-1" type="line"/>
			<point x="625" y="69" type="line"/>
			<point x="669" y="90" type="line"/>
			<point x="687" y="-1" type="line"/>
			<point x="829" y="0" type="line"/>
			<point x="701" y="554" type="line"/>
			<point x="597" y="554" type="line"/>
			<point x="397" y="222" type="line"/>
			<point x="228" y="222" type="line"/>
			<point x="290" y="554" type="line"/>
			<point x="157" y="554" type="line"/>
		</contour>
		<contour>
			<point x="515" y="193" type="line"/>
			<point x="614" y="367" type="line"/>
			<point x="649" y="191" type="line"/>
			<point x="575" y="156" type="line"/>
		</contour>
	</outline>
</glyph>
<glyph name="Yusbigiotifiedcyr" format="2">
  <advance width="1132"/>
  <unicode hex="046C"/>
  <outline>
    <contour>
      <point x="58" y="0" type="line"/>
      <point x="195" y="0" type="line"/>
      <point x="252" y="310" type="line"/>
      <point x="386" y="310" type="line"/>
      <point x="307" y="235"/>
      <point x="248" y="114"/>
      <point x="227" y="0" type="curve"/>
      <point x="391" y="0" type="line"/>
      <point x="410" y="101"/>
      <point x="495" y="270"/>
      <point x="630" y="270" type="curve"/>
      <point x="580" y="0" type="line"/>
      <point x="719" y="0" type="line"/>
      <point x="769" y="270" type="line"/>
      <point x="877" y="270"/>
      <point x="913" y="161"/>
      <point x="913" y="66" type="curve" smooth="yes"/>
      <point x="913" y="43"/>
      <point x="911" y="20"/>
      <point x="907" y="0" type="curve"/>
      <point x="1071" y="0" type="line"/>
      <point x="1077" y="34"/>
      <point x="1081" y="70"/>
      <point x="1081" y="104" type="curve" smooth="yes"/>
      <point x="1081" y="252"/>
      <point x="1020" y="384"/>
      <point x="894" y="384" type="curve"/>
      <point x="1064" y="604" type="line"/>
      <point x="1089" y="739" type="line"/>
      <point x="484" y="739" type="line"/>
      <point x="459" y="604" type="line"/>
      <point x="527" y="441" type="line"/>
      <point x="277" y="441" type="line"/>
      <point x="332" y="739" type="line"/>
      <point x="195" y="739" type="line"/>
    </contour>
    <contour>
      <point x="717" y="405" type="line"/>
      <point x="630" y="604" type="line"/>
      <point x="878" y="604" type="line"/>
    </contour>
  </outline>
</glyph>
<glyph name="psicyr" format="2">
  <advance width="722"/>
  <unicode hex="0471"/>
  <outline>
    <contour>
      <point x="254" y="-192" type="line"/>
      <point x="387" y="-192" type="line"/>
      <point x="420" y="-12" type="line"/>
      <point x="657" y="4"/>
      <point x="754" y="175"/>
      <point x="754" y="392" type="curve" smooth="yes"/>
      <point x="754" y="444"/>
      <point x="748" y="504"/>
      <point x="728" y="547" type="curve"/>
      <point x="590" y="547" type="line"/>
      <point x="615" y="501"/>
      <point x="622" y="439"/>
      <point x="622" y="388" type="curve" smooth="yes"/>
      <point x="622" y="266"/>
      <point x="587" y="124"/>
      <point x="443" y="110" type="curve"/>
      <point x="524" y="547" type="line"/>
      <point x="391" y="547" type="line"/>
      <point x="310" y="110" type="line"/>
      <point x="237" y="117"/>
      <point x="205" y="153"/>
      <point x="205" y="213" type="curve" smooth="yes"/>
      <point x="205" y="225"/>
      <point x="206" y="238"/>
      <point x="209" y="252" type="curve"/>
      <point x="264" y="547" type="line"/>
      <point x="131" y="547" type="line"/>
      <point x="76" y="252" type="line" smooth="yes"/>
      <point x="71" y="228"/>
      <point x="69" y="205"/>
      <point x="69" y="184" type="curve" smooth="yes"/>
      <point x="69" y="65"/>
      <point x="141" y="-4"/>
      <point x="287" y="-12" type="curve"/>
    </contour>
  </outline>
</glyph>
<glyph name="Fitacyr" format="2">
  <advance width="842"/>
  <unicode hex="0472"/>
  <outline>
    <contour>
      <point x="97" y="298" type="curve" smooth="yes"/>
      <point x="97" y="119"/>
      <point x="230" y="-13"/>
      <point x="422" y="-13" type="curve" smooth="yes"/>
      <point x="663" y="-13"/>
      <point x="881" y="200"/>
      <point x="881" y="441" type="curve" smooth="yes"/>
      <point x="881" y="618"/>
      <point x="752" y="752"/>
      <point x="566" y="752" type="curve" smooth="yes"/>
      <point x="323" y="752"/>
      <point x="97" y="544"/>
    </contour>
    <contour>
      <point x="238" y="310" type="curve"/>
      <point x="719" y="310" type="line"/>
      <point x="674" y="197"/>
      <point x="566" y="119"/>
      <point x="446" y="119" type="curve" smooth="yes"/>
      <point x="327" y="119"/>
      <point x="244" y="199"/>
    </contour>
    <contour>
      <point x="265" y="441" type="line"/>
      <point x="314" y="545"/>
      <point x="421" y="620"/>
      <point x="532" y="620" type="curve" smooth="yes"/>
      <point x="651" y="620"/>
      <point x="730" y="548"/>
      <point x="739" y="441" type="curve"/>
    </contour>
  </outline>
</glyph>
<glyph name="Izhitsacyr" format="2">
  <advance width="733"/>
  <unicode hex="0474"/>
  <outline>
    <contour>
      <point x="292" y="0" type="line"/>
      <point x="404" y="0" type="line"/>
      <point x="712" y="538" type="line" smooth="yes"/>
      <point x="734" y="577"/>
      <point x="773" y="608"/>
      <point x="815" y="608" type="curve" smooth="yes"/>
      <point x="833" y="608" type="line"/>
      <point x="857" y="739" type="line"/>
      <point x="827" y="739" type="line" smooth="yes"/>
      <point x="747" y="739"/>
      <point x="665" y="704"/>
      <point x="601" y="586" type="curve" smooth="yes"/>
      <point x="380" y="177" type="line"/>
      <point x="285" y="739" type="line"/>
      <point x="141" y="739" type="line"/>
    </contour>
  </outline>
</glyph>
<glyph name="izhitsacyr" format="2">
  <advance width="582"/>
  <unicode hex="0475"/>
  <outline>
    <contour>
      <point x="226" y="0" type="line"/>
      <point x="332" y="0" type="line"/>
      <point x="555" y="380" type="line" smooth="yes"/>
      <point x="573" y="411"/>
      <point x="600" y="433"/>
      <point x="637" y="433" type="curve" smooth="yes"/>
      <point x="654" y="433" type="line"/>
      <point x="676" y="554" type="line"/>
      <point x="624" y="554" type="line" smooth="yes"/>
      <point x="554" y="554"/>
      <point x="496" y="533"/>
      <point x="438" y="424" type="curve" smooth="yes"/>
      <point x="313" y="187" type="line"/>
      <point x="253" y="554" type="line"/>
      <point x="105" y="554" type="line"/>
    </contour>
  </outline>
</glyph>
<glyph name="Izhitsagravedblcyr" format="2">
  <advance width="762"/>
  <unicode hex="0476"/>
  <outline>
    <contour>
      <point x="485" y="936" type="line"/>
      <point x="688" y="812" type="line"/>
      <point x="756" y="891" type="line"/>
      <point x="559" y="1024" type="line"/>
    </contour>
    <contour>
      <point x="214" y="936" type="line"/>
      <point x="417" y="812" type="line"/>
      <point x="485" y="891" type="line"/>
      <point x="288" y="1024" type="line"/>
    </contour>
    <contour>
      <point x="333" y="0" type="line"/>
      <point x="445" y="0" type="line"/>
      <point x="753" y="538" type="line" smooth="yes"/>
      <point x="775" y="577"/>
      <point x="814" y="608"/>
      <point x="856" y="608" type="curve" smooth="yes"/>
      <point x="874" y="608" type="line"/>
      <point x="898" y="739" type="line"/>
      <point x="868" y="739" type="line" smooth="yes"/>
      <point x="788" y="739"/>
      <point x="706" y="704"/>
      <point x="642" y="586" type="curve" smooth="yes"/>
      <point x="421" y="177" type="line"/>
      <point x="326" y="739" type="line"/>
      <point x="182" y="739" type="line"/>
    </contour>
  </outline>
</glyph>
<glyph name="izhitsagravedblcyr" format="2">
	<unicode hex="0477"/>
	<advance width="666"/>
	<outline>
		<contour>
			<point x="428" y="751" type="line"/>
			<point x="631" y="627" type="line"/>
			<point x="699" y="706" type="line"/>
			<point x="502" y="839" type="line"/>
		</contour>
		<contour>
			<point x="157" y="751" type="line"/>
			<point x="360" y="627" type="line"/>
			<point x="428" y="706" type="line"/>
			<point x="231" y="839" type="line"/>
		</contour>
		<contour>
			<point x="318" y="0" type="line"/>
			<point x="424" y="0" type="line"/>
			<point x="647" y="380" type="line" smooth="yes"/>
			<point x="665" y="411"/>
			<point x="692" y="433"/>
			<point x="729" y="433" type="curve" smooth="yes"/>
			<point x="746" y="433" type="line"/>
			<point x="768" y="554" type="line"/>
			<point x="716" y="554" type="line" smooth="yes"/>
			<point x="646" y="554"/>
			<point x="588" y="533"/>
			<point x="530" y="424" type="curve" smooth="yes"/>
			<point x="405" y="187" type="line"/>
			<point x="345" y="554" type="line"/>
			<point x="197" y="554" type="line"/>
		</contour>
	</outline>
</glyph>
<glyph name="Omegaroundcyr" format="2">
  <advance width="842"/>
  <unicode hex="047A"/>
  <outline>
    <contour>
      <point x="98" y="298" type="curve" smooth="yes"/>
      <point x="98" y="169"/>
      <point x="167" y="65"/>
      <point x="277" y="16" type="curve"/>
      <point x="286" y="-45"/>
      <point x="333" y="-88"/>
      <point x="400" y="-88" type="curve" smooth="yes"/>
      <point x="464" y="-88"/>
      <point x="525" y="-49"/>
      <point x="557" y="8" type="curve"/>
      <point x="739" y="68"/>
      <point x="883" y="248"/>
      <point x="883" y="442" type="curve" smooth="yes"/>
      <point x="883" y="575"/>
      <point x="810" y="683"/>
      <point x="695" y="729" type="curve"/>
      <point x="687" y="790"/>
      <point x="641" y="833"/>
      <point x="575" y="833" type="curve" smooth="yes"/>
      <point x="502" y="833"/>
      <point x="435" y="786"/>
      <point x="406" y="721" type="curve"/>
      <point x="235" y="655"/>
      <point x="98" y="485"/>
    </contour>
    <contour>
      <point x="238" y="322" type="curve" smooth="yes"/>
      <point x="238" y="432"/>
      <point x="309" y="536"/>
      <point x="405" y="587" type="curve"/>
      <point x="427" y="554"/>
      <point x="465" y="527"/>
      <point x="514" y="527" type="curve" smooth="yes"/>
      <point x="566" y="527"/>
      <point x="615" y="552"/>
      <point x="649" y="591" type="curve"/>
      <point x="707" y="558"/>
      <point x="742" y="496"/>
      <point x="742" y="420" type="curve" smooth="yes"/>
      <point x="742" y="306"/>
      <point x="673" y="198"/>
      <point x="571" y="148" type="curve"/>
      <point x="553" y="191"/>
      <point x="513" y="219"/>
      <point x="460" y="219" type="curve" smooth="yes"/>
      <point x="407" y="219"/>
      <point x="357" y="194"/>
      <point x="322" y="155" type="curve"/>
      <point x="269" y="191"/>
      <point x="238" y="251"/>
    </contour>
  </outline>
</glyph>
<glyph name="omegaroundcyr" format="2">
	<unicode hex="047B"/>
	<advance width="645"/>
	<outline>
		<contour>
			<point x="74" y="224" type="curve" smooth="yes"/>
			<point x="74" y="124"/>
			<point x="130" y="41"/>
			<point x="219" y="5" type="curve"/>
			<point x="232" y="-32"/>
			<point x="266" y="-57"/>
			<point x="311" y="-57" type="curve" smooth="yes"/>
			<point x="357" y="-57"/>
			<point x="401" y="-32"/>
			<point x="428" y="6" type="curve"/>
			<point x="561" y="53"/>
			<point x="672" y="184"/>
			<point x="672" y="329" type="curve" smooth="yes"/>
			<point x="672" y="429"/>
			<point x="617" y="511"/>
			<point x="530" y="547" type="curve"/>
			<point x="518" y="586"/>
			<point x="484" y="612"/>
			<point x="438" y="612" type="curve" smooth="yes"/>
			<point x="389" y="612"/>
			<point x="343" y="586"/>
			<point x="316" y="547" type="curve"/>
			<point x="182" y="500"/>
			<point x="74" y="369"/>
		</contour>
		<contour>
			<point x="207" y="246" type="curve" smooth="yes"/>
			<point x="207" y="313"/>
			<point x="247" y="377"/>
			<point x="302" y="414" type="curve"/>
			<point x="319" y="386"/>
			<point x="350" y="367"/>
			<point x="389" y="367" type="curve" smooth="yes"/>
			<point x="427" y="367"/>
			<point x="464" y="384"/>
			<point x="491" y="412" type="curve"/>
			<point x="519" y="388"/>
			<point x="535" y="352"/>
			<point x="535" y="310" type="curve" smooth="yes"/>
			<point x="535" y="243"/>
			<point x="499" y="179"/>
			<point x="443" y="142" type="curve"/>
			<point x="427" y="170"/>
			<point x="397" y="188"/>
			<point x="359" y="188" type="curve" smooth="yes"/>
			<point x="318" y="188"/>
			<point x="279" y="170"/>
			<point x="251" y="141" type="curve"/>
			<point x="223" y="166"/>
			<point x="207" y="203"/>
		</contour>
	</outline>
</glyph>
<glyph name="omegatitlocyr" format="2">
	<unicode hex="047D"/>
	<advance width="860"/>
	<outline>
		<contour>
			<point x="415" y="277" type="line"/>
			<point x="399" y="191" type="line" smooth="yes"/>
			<point x="389" y="135"/>
			<point x="356" y="109"/>
			<point x="319" y="109" type="curve" smooth="yes"/>
			<point x="270" y="109"/>
			<point x="233" y="132"/>
			<point x="233" y="192" type="curve" smooth="yes"/>
			<point x="233" y="202"/>
			<point x="234" y="214"/>
			<point x="236" y="227" type="curve"/>
			<point x="256" y="335" type="line" smooth="yes"/>
			<point x="264" y="378"/>
			<point x="302" y="415"/>
			<point x="346" y="415" type="curve" smooth="yes"/>
			<point x="358" y="415" type="line"/>
			<point x="382" y="547" type="line"/>
			<point x="302" y="547" type="line" smooth="yes"/>
			<point x="219" y="547"/>
			<point x="146" y="466"/>
			<point x="120" y="325" type="curve" smooth="yes"/>
			<point x="102" y="227" type="line" smooth="yes"/>
			<point x="97" y="202"/>
			<point x="95" y="178"/>
			<point x="95" y="157" type="curve" smooth="yes"/>
			<point x="95" y="42"/>
			<point x="161" y="-13"/>
			<point x="266" y="-13" type="curve" smooth="yes"/>
			<point x="342" y="-13"/>
			<point x="420" y="45"/>
			<point x="443" y="70" type="curve"/>
			<point x="456" y="45"/>
			<point x="509" y="-13"/>
			<point x="582" y="-13" type="curve" smooth="yes"/>
			<point x="725" y="-13"/>
			<point x="811" y="60"/>
			<point x="842" y="227" type="curve" smooth="yes"/>
			<point x="860" y="325" type="line" smooth="yes"/>
			<point x="866" y="360"/>
			<point x="870" y="390"/>
			<point x="870" y="417" type="curve" smooth="yes"/>
			<point x="870" y="502"/>
			<point x="836" y="547"/>
			<point x="760" y="547" type="curve" smooth="yes"/>
			<point x="680" y="547" type="line"/>
			<point x="656" y="415" type="line"/>
			<point x="669" y="415" type="line" smooth="yes"/>
			<point x="703" y="415"/>
			<point x="731" y="397"/>
			<point x="731" y="356" type="curve" smooth="yes"/>
			<point x="731" y="350"/>
			<point x="730" y="342"/>
			<point x="729" y="335" type="curve"/>
			<point x="709" y="227" type="line" smooth="yes"/>
			<point x="693" y="140"/>
			<point x="658" y="109"/>
			<point x="585" y="109" type="curve" smooth="yes"/>
			<point x="565" y="109"/>
			<point x="530" y="127"/>
			<point x="530" y="172" type="curve" smooth="yes"/>
			<point x="530" y="178"/>
			<point x="531" y="185"/>
			<point x="532" y="191" type="curve" smooth="yes"/>
			<point x="548" y="277" type="line"/>
		</contour>
		<contour>
			<point x="276" y="591" type="line"/>
			<point x="413" y="591" type="line"/>
			<point x="417" y="611" type="line" smooth="yes"/>
			<point x="423" y="644"/>
			<point x="446" y="693"/>
			<point x="527" y="693" type="curve" smooth="yes"/>
			<point x="563" y="693"/>
			<point x="594" y="672"/>
			<point x="628" y="648" type="curve" smooth="yes"/>
			<point x="667" y="620"/>
			<point x="711" y="591"/>
			<point x="771" y="591" type="curve" smooth="yes"/>
			<point x="810" y="591" type="line"/>
			<point x="833" y="725" type="line"/>
			<point x="795" y="725" type="line" smooth="yes"/>
			<point x="759" y="725"/>
			<point x="729" y="745"/>
			<point x="696" y="767" type="curve" smooth="yes"/>
			<point x="654" y="795"/>
			<point x="607" y="826"/>
			<point x="538" y="826" type="curve" smooth="yes"/>
			<point x="440" y="826"/>
			<point x="307" y="763"/>
			<point x="280" y="615" type="curve" smooth="yes"/>
		</contour>
		<contour>
			<point x="520" y="387" type="line"/>
			<point x="573" y="424"/>
			<point x="631" y="485"/>
			<point x="631" y="554" type="curve" smooth="yes"/>
			<point x="631" y="594"/>
			<point x="602" y="616"/>
			<point x="553" y="616" type="curve" smooth="yes"/>
			<point x="549" y="616" type="line" smooth="yes"/>
			<point x="494" y="616"/>
			<point x="445" y="575"/>
			<point x="445" y="518" type="curve" smooth="yes"/>
			<point x="445" y="485"/>
			<point x="470" y="469"/>
			<point x="482" y="469" type="curve" smooth="yes"/>
			<point x="487" y="469" type="line"/>
			<point x="482" y="442"/>
			<point x="443" y="411"/>
			<point x="406" y="387" type="curve"/>
		</contour>
	</outline>
</glyph>
<glyph name="Otcyr" format="2">
  <advance width="860"/>
  <unicode hex="047E"/>
  <outline>
    <contour>
      <point x="197" y="739" type="line"/>
      <point x="126" y="357" type="line" smooth="yes"/>
      <point x="120" y="322"/>
      <point x="117" y="290"/>
      <point x="117" y="261" type="curve" smooth="yes"/>
      <point x="117" y="131"/>
      <point x="174" y="53"/>
      <point x="226" y="-13" type="curve"/>
      <point x="332" y="24"/>
      <point x="425" y="101"/>
      <point x="458" y="150" type="curve"/>
      <point x="467" y="103"/>
      <point x="521" y="39"/>
      <point x="582" y="-13" type="curve"/>
      <point x="739" y="45"/>
      <point x="896" y="192"/>
      <point x="927" y="357" type="curve" smooth="yes"/>
      <point x="998" y="739" type="line"/>
      <point x="861" y="739" type="line"/>
      <point x="790" y="357" type="line" smooth="yes"/>
      <point x="771" y="254"/>
      <point x="722" y="194"/>
      <point x="664" y="153" type="curve"/>
      <point x="640" y="171"/>
      <point x="590" y="235"/>
      <point x="590" y="311" type="curve" smooth="yes"/>
      <point x="590" y="321"/>
      <point x="591" y="331"/>
      <point x="593" y="341" type="curve" smooth="yes"/>
      <point x="667" y="739" type="line"/>
      <point x="530" y="739" type="line"/>
      <point x="456" y="341" type="line" smooth="yes"/>
      <point x="440" y="257"/>
      <point x="367" y="190"/>
      <point x="305" y="153" type="curve"/>
      <point x="281" y="168"/>
      <point x="256" y="224"/>
      <point x="256" y="297" type="curve" smooth="yes"/>
      <point x="256" y="316"/>
      <point x="258" y="337"/>
      <point x="262" y="358" type="curve" smooth="yes"/>
      <point x="333" y="739" type="line"/>
    </contour>
    <contour>
      <point x="290" y="830" type="line"/>
      <point x="404" y="830" type="line"/>
      <point x="411" y="868" type="line"/>
      <point x="552" y="868" type="line"/>
      <point x="538" y="790" type="line"/>
      <point x="673" y="790" type="line"/>
      <point x="687" y="868" type="line"/>
      <point x="828" y="868" type="line"/>
      <point x="821" y="830" type="line"/>
      <point x="935" y="830" type="line"/>
      <point x="962" y="975" type="line"/>
      <point x="317" y="975" type="line"/>
    </contour>
  </outline>
</glyph>
<glyph name="psilicombcyr" format="2">
	<unicode hex="0486"/>
	<outline>
		<contour>
			<point x="-35" y="607" type="line"/>
			<point x="18" y="644"/>
			<point x="76" y="705"/>
			<point x="76" y="774" type="curve" smooth="yes"/>
			<point x="76" y="814"/>
			<point x="47" y="836"/>
			<point x="-2" y="836" type="curve" smooth="yes"/>
			<point x="-6" y="836" type="line" smooth="yes"/>
			<point x="-61" y="836"/>
			<point x="-110" y="795"/>
			<point x="-110" y="738" type="curve" smooth="yes"/>
			<point x="-110" y="705"/>
			<point x="-85" y="689"/>
			<point x="-73" y="689" type="curve" smooth="yes"/>
			<point x="-68" y="689" type="line"/>
			<point x="-73" y="662"/>
			<point x="-112" y="631"/>
			<point x="-149" y="607" type="curve"/>
		</contour>
	</outline>
</glyph>
<glyph name="quotereversed" format="2">
  <advance width="282"/>
  <unicode hex="201B"/>
  <outline>
    <contour>
      <point x="345" y="739" type="line"/>
      <point x="212" y="739" type="line"/>
      <point x="190" y="630" type="line" smooth="yes"/>
      <point x="171" y="534"/>
      <point x="238" y="480"/>
      <point x="281" y="471" type="curve"/>
      <point x="295" y="538" type="line"/>
      <point x="279" y="543"/>
      <point x="252" y="566"/>
      <point x="262" y="611" type="curve"/>
      <point x="320" y="611" type="line"/>
    </contour>
  </outline>
</glyph>
<glyph name="ellipsis" format="2">
	<unicode hex="2026"/>
	<advance width="1000"/>
	<outline>
		<contour>
			<point x="100" y="0" type="line"/>
			<point x="233" y="0" type="line"/>
			<point x="257" y="128" type="line"/>
			<point x="124" y="128" type="line"/>
		</contour>
		<contour>
			<point x="433" y="0" type="line"/>
			<point x="566" y="0" type="line"/>
			<point x="590" y="128" type="line"/>
			<point x="457" y="128" type="line"/>
		</contour>
		<contour>
			<point x="766" y="0" type="line"/>
			<point x="899" y="0" type="line"/>
			<point x="923" y="128" type="line"/>
			<point x="790" y="128" type="line"/>
		</contour>
	</outline>
</glyph>
<glyph name="guilsinglleft" format="2">
  <advance width="247"/>
  <unicode hex="2039"/>
  <outline>
    <contour>
      <point x="204" y="108" type="line"/>
      <point x="227" y="231" type="line"/>
      <point x="171" y="289" type="line"/>
      <point x="248" y="346" type="line"/>
      <point x="271" y="469" type="line"/>
      <point x="108" y="339" type="line"/>
      <point x="89" y="239" type="line"/>
    </contour>
  </outline>
</glyph>
<glyph name="Euro" format="2">
  <advance width="761"/>
  <unicode hex="20AC"/>
  <outline>
    <contour>
      <point x="55" y="206" type="line"/>
      <point x="206" y="206" type="line"/>
      <point x="244" y="77"/>
      <point x="360" y="-13"/>
      <point x="514" y="-13" type="curve" smooth="yes"/>
      <point x="583" y="-13"/>
      <point x="651" y="5"/>
      <point x="713" y="37" type="curve"/>
      <point x="745" y="209" type="line"/>
      <point x="690" y="154"/>
      <point x="614" y="119"/>
      <point x="538" y="119" type="curve" smooth="yes"/>
      <point x="463" y="119"/>
      <point x="402" y="153"/>
      <point x="367" y="206" type="curve"/>
      <point x="631" y="206" type="line"/>
      <point x="697" y="329" type="line"/>
      <point x="333" y="329" type="line"/>
      <point x="333" y="348"/>
      <point x="335" y="362"/>
      <point x="340" y="381" type="curve"/>
      <point x="726" y="381" type="line"/>
      <point x="791" y="504" type="line"/>
      <point x="401" y="504" type="line"/>
      <point x="458" y="574"/>
      <point x="544" y="620"/>
      <point x="631" y="620" type="curve" smooth="yes"/>
      <point x="707" y="620"/>
      <point x="769" y="585"/>
      <point x="804" y="529" type="curve"/>
      <point x="879" y="669" type="line"/>
      <point x="823" y="721"/>
      <point x="745" y="752"/>
      <point x="655" y="752" type="curve" smooth="yes"/>
      <point x="490" y="752"/>
      <point x="331" y="649"/>
      <point x="249" y="504" type="curve"/>
      <point x="155" y="504" type="line"/>
      <point x="90" y="381" type="line"/>
      <point x="202" y="381" type="line"/>
      <point x="198" y="364"/>
      <point x="195" y="347"/>
      <point x="194" y="329" type="curve"/>
      <point x="121" y="329" type="line"/>
    </contour>
  </outline>
</glyph>
<glyph name="minus" format="2">
	<unicode hex="2212"/>
	<advance width="600"/>
	<outline>
		<contour>
			<point x="106" y="312" type="line"/>
			<point x="610" y="312" type="line"/>
			<point x="632" y="430" type="line"/>
			<point x="128" y="430" type="line"/>
		</contour>
	</outline>
</glyph>
<glyph name="brevecomb.cyr" format="2">
  <unicode hex="E082"/>
  <outline>
    <contour>
      <point x="-350" y="746" type="line"/>
      <point x="-350" y="656"/>
      <point x="-300" y="616"/>
      <point x="-209" y="616" type="curve" smooth="yes"/>
      <point x="-118" y="616"/>
      <point x="-52" y="656"/>
      <point x="-20" y="746" type="curve"/>
      <point x="-121" y="746" type="line"/>
      <point x="-130" y="696"/>
      <point x="-153" y="675"/>
      <point x="-198" y="675" type="curve" smooth="yes"/>
      <point x="-235" y="675"/>
      <point x="-251" y="689"/>
      <point x="-251" y="721" type="curve" smooth="yes"/>
      <point x="-251" y="728"/>
      <point x="-251" y="737"/>
      <point x="-249" y="746" type="curve"/>
    </contour>
  </outline>
</glyph>
<glyph name="j.dotless" format="2">
	<unicode hex="E091"/>
	<advance width="255"/>
	<outline>
		<contour>
			<point x="-21" y="-185" type="line"/>
			<point x="30" y="-185"/>
			<point x="78" y="-168"/>
			<point x="117" y="-137" type="curve" smooth="yes"/>
			<point x="165" y="-99"/>
			<point x="193" y="-46"/>
			<point x="208" y="37" type="curve" smooth="yes"/>
			<point x="304" y="554" type="line"/>
			<point x="171" y="554" type="line"/>
			<point x="75" y="40" type="line" smooth="yes"/>
			<point x="61" y="-38"/>
			<point x="55" y="-47"/>
			<point x="3" y="-56" type="curve"/>
		</contour>
	</outline>
</glyph>
<glyph name="becyr.serbian" format="2">
  <advance width="645"/>
  <unicode hex="E0A0"/>
  <outline>
    <contour>
      <point x="308" y="498" type="line"/>
      <point x="197" y="472"/>
      <point x="100" y="386"/>
      <point x="77" y="262" type="curve" smooth="yes"/>
      <point x="74" y="246"/>
      <point x="72" y="229"/>
      <point x="72" y="214" type="curve" smooth="yes"/>
      <point x="72" y="85"/>
      <point x="174" y="-13"/>
      <point x="320" y="-13" type="curve" smooth="yes"/>
      <point x="483" y="-13"/>
      <point x="638" y="110"/>
      <point x="666" y="262" type="curve" smooth="yes"/>
      <point x="669" y="279"/>
      <point x="670" y="296"/>
      <point x="670" y="311" type="curve" smooth="yes"/>
      <point x="670" y="439"/>
      <point x="563" y="494"/>
      <point x="482" y="532" type="curve" smooth="yes"/>
      <point x="309" y="614" type="line" smooth="yes"/>
      <point x="294" y="621"/>
      <point x="288" y="627"/>
      <point x="288" y="636" type="curve" smooth="yes"/>
      <point x="288" y="638"/>
      <point x="289" y="640"/>
      <point x="289" y="642" type="curve"/>
      <point x="291" y="655"/>
      <point x="303" y="664"/>
      <point x="318" y="664" type="curve" smooth="yes"/>
      <point x="707" y="664" type="line"/>
      <point x="729" y="781" type="line"/>
      <point x="340" y="781" type="line" smooth="yes"/>
      <point x="255" y="781"/>
      <point x="181" y="724"/>
      <point x="167" y="651" type="curve"/>
      <point x="166" y="643"/>
      <point x="164" y="635"/>
      <point x="164" y="628" type="curve" smooth="yes"/>
      <point x="164" y="578"/>
      <point x="199" y="543"/>
      <point x="250" y="523" type="curve" smooth="yes"/>
      <point x="309" y="500" type="line"/>
    </contour>
    <contour>
      <point x="208" y="235" type="curve" smooth="yes"/>
      <point x="208" y="244"/>
      <point x="209" y="253"/>
      <point x="211" y="262" type="curve"/>
      <point x="227" y="347"/>
      <point x="310" y="416"/>
      <point x="399" y="416" type="curve" smooth="yes"/>
      <point x="478" y="416"/>
      <point x="534" y="361"/>
      <point x="534" y="289" type="curve" smooth="yes"/>
      <point x="534" y="280"/>
      <point x="534" y="271"/>
      <point x="532" y="262" type="curve"/>
      <point x="516" y="177"/>
      <point x="431" y="109"/>
      <point x="342" y="109" type="curve" smooth="yes"/>
      <point x="263" y="109"/>
      <point x="208" y="163"/>
    </contour>
  </outline>
</glyph>
<glyph name="fi" format="2">
  <advance width="527"/>
  <unicode hex="FB01"/>
  <outline>
    <contour>
      <point x="68" y="0" type="line"/>
      <point x="201" y="0" type="line"/>
      <point x="281" y="433" type="line"/>
      <point x="356" y="433" type="line"/>
      <point x="377" y="544" type="line"/>
      <point x="302" y="544" type="line"/>
      <point x="310" y="584"/>
      <point x="340" y="611"/>
      <point x="397" y="611" type="curve"/>
      <point x="421" y="737" type="line"/>
      <point x="279" y="737"/>
      <point x="204" y="668"/>
      <point x="169" y="544" type="curve"/>
      <point x="121" y="544" type="line"/>
      <point x="100" y="433" type="line"/>
      <point x="148" y="433" type="line"/>
    </contour>
    <contour>
      <point x="340" y="0" type="line"/>
      <point x="473" y="0" type="line"/>
      <point x="576" y="554" type="line"/>
      <point x="443" y="554" type="line"/>
    </contour>
    <contour>
      <point x="454" y="614" type="line"/>
      <point x="587" y="614" type="line"/>
      <point x="610" y="739" type="line"/>
      <point x="477" y="739" type="line"/>
    </contour>
  </outline>
</glyph>
<glyph name="f_f_l" format="2">
	<unicode hex="FB04"/>
	<advance width="799"/>
	<outline>
		<contour>
			<point x="68" y="0" type="line"/>
			<point x="201" y="0" type="line"/>
			<point x="281" y="433" type="line"/>
			<point x="420" y="433" type="line"/>
			<point x="340" y="0" type="line"/>
			<point x="473" y="0" type="line"/>
			<point x="553" y="433" type="line"/>
			<point x="628" y="433" type="line"/>
			<point x="649" y="544" type="line"/>
			<point x="574" y="544" type="line"/>
			<point x="583" y="583"/>
			<point x="612" y="611"/>
			<point x="669" y="611" type="curve"/>
			<point x="693" y="737" type="line"/>
			<point x="539" y="737"/>
			<point x="480" y="683"/>
			<point x="441" y="544" type="curve"/>
			<point x="302" y="544" type="line"/>
			<point x="311" y="583"/>
			<point x="340" y="611"/>
			<point x="397" y="611" type="curve"/>
			<point x="421" y="737" type="line"/>
			<point x="267" y="737"/>
			<point x="208" y="683"/>
			<point x="169" y="544" type="curve"/>
			<point x="121" y="544" type="line"/>
			<point x="100" y="433" type="line"/>
			<point x="148" y="433" type="line"/>
		</contour>
		<contour>
			<point x="612" y="0" type="line"/>
			<point x="745" y="0" type="line"/>
			<point x="882" y="739" type="line"/>
			<point x="749" y="739" type="line"/>
		</contour>
	</outline>
</glyph>
<glyph name="Yacyr.loclBGR" format="2">
  <advance width="607"/>
  <outline>
    <contour>
      <point x="12" y="0" type="line"/>
      <point x="169" y="0" type="line"/>
      <point x="383" y="268" type="line"/>
      <point x="420" y="268" type="line"/>
      <point x="444" y="398" type="line"/>
      <point x="387" y="398" type="line" smooth="yes"/>
      <point x="321" y="398"/>
      <point x="278" y="424"/>
      <point x="278" y="480" type="curve" smooth="yes"/>
      <point x="278" y="566"/>
      <point x="346" y="608"/>
      <point x="427" y="608" type="curve" smooth="yes"/>
      <point x="507" y="608" type="line"/>
      <point x="394" y="0" type="line"/>
      <point x="531" y="0" type="line"/>
      <point x="667" y="740" type="line"/>
      <point x="460" y="740" type="line" smooth="yes"/>
      <point x="275" y="740"/>
      <point x="129" y="636"/>
      <point x="129" y="441" type="curve" smooth="yes"/>
      <point x="129" y="368"/>
      <point x="161" y="309"/>
      <point x="234" y="275" type="curve"/>
    </contour>
  </outline>
</glyph>
<glyph name="becyr.loclBGR" format="2">
  <advance width="648"/>
  <outline>
    <contour>
      <point x="78" y="223" type="curve" smooth="yes"/>
      <point x="78" y="90"/>
      <point x="148" y="-13"/>
      <point x="321" y="-13" type="curve" smooth="yes"/>
      <point x="498" y="-13"/>
      <point x="668" y="125"/>
      <point x="668" y="308" type="curve" smooth="yes"/>
      <point x="668" y="436"/>
      <point x="573" y="530"/>
      <point x="433" y="530" type="curve" smooth="yes"/>
      <point x="355" y="530"/>
      <point x="294" y="503"/>
      <point x="260" y="477" type="curve"/>
      <point x="257" y="478" type="line"/>
      <point x="262" y="504"/>
      <point x="295" y="589"/>
      <point x="444" y="607" type="curve"/>
      <point x="643" y="628" type="line"/>
      <point x="666" y="752" type="line"/>
      <point x="468" y="727" type="line" smooth="yes"/>
      <point x="258" y="700"/>
      <point x="143" y="609"/>
      <point x="86" y="304" type="curve" smooth="yes"/>
      <point x="81" y="276"/>
      <point x="78" y="249"/>
    </contour>
    <contour>
      <point x="212" y="235" type="curve" smooth="yes"/>
      <point x="212" y="341"/>
      <point x="297" y="408"/>
      <point x="400" y="408" type="curve" smooth="yes"/>
      <point x="479" y="408"/>
      <point x="531" y="356"/>
      <point x="531" y="285" type="curve" smooth="yes"/>
      <point x="531" y="187"/>
      <point x="441" y="109"/>
      <point x="345" y="109" type="curve" smooth="yes"/>
      <point x="263" y="109"/>
      <point x="212" y="162"/>
    </contour>
  </outline>
</glyph>
<glyph name="gecyr.loclBGR" format="2">
  <advance width="438"/>
  <outline>
    <contour>
      <point x="315" y="176" type="line"/>
      <point x="306" y="130"/>
      <point x="267" y="109"/>
      <point x="228" y="109" type="curve" smooth="yes"/>
      <point x="197" y="109"/>
      <point x="177" y="127"/>
      <point x="177" y="153" type="curve" smooth="yes"/>
      <point x="177" y="191"/>
      <point x="211" y="216"/>
      <point x="285" y="234" type="curve" smooth="yes"/>
      <point x="385" y="258"/>
      <point x="473" y="315"/>
      <point x="473" y="429" type="curve" smooth="yes"/>
      <point x="473" y="509"/>
      <point x="411" y="567"/>
      <point x="318" y="567" type="curve" smooth="yes"/>
      <point x="221" y="567"/>
      <point x="124" y="503"/>
      <point x="105" y="401" type="curve"/>
      <point x="235" y="401" type="line"/>
      <point x="241" y="433"/>
      <point x="267" y="445"/>
      <point x="295" y="445" type="curve" smooth="yes"/>
      <point x="321" y="445"/>
      <point x="340" y="430"/>
      <point x="340" y="409" type="curve" smooth="yes"/>
      <point x="340" y="380"/>
      <point x="311" y="361"/>
      <point x="232" y="338" type="curve" smooth="yes"/>
      <point x="128" y="308"/>
      <point x="45" y="259"/>
      <point x="45" y="141" type="curve" smooth="yes"/>
      <point x="45" y="52"/>
      <point x="112" y="-13"/>
      <point x="211" y="-13" type="curve" smooth="yes"/>
      <point x="328" y="-13"/>
      <point x="427" y="59"/>
      <point x="449" y="176" type="curve"/>
    </contour>
  </outline>
</glyph>
<glyph name="gecyr.loclSRB" format="2">
  <advance width="241"/>
  <outline>
    <contour>
      <point x="103" y="648" type="line"/>
      <point x="380" y="648" type="line"/>
      <point x="399" y="748" type="line"/>
      <point x="122" y="748" type="line"/>
    </contour>
    <contour>
      <point x="54" y="0" type="line"/>
      <point x="187" y="0" type="line"/>
      <point x="290" y="554" type="line"/>
      <point x="157" y="554" type="line"/>
    </contour>
  </outline>
</glyph>
<glyph name="hardcyr.loclBGR" format="2">
	<advance width="734"/>
	<outline>
		<contour>
			<point x="163" y="183" type="curve" smooth="yes"/>
			<point x="163" y="61"/>
			<point x="259" y="-13"/>
			<point x="405" y="-13" type="curve" smooth="yes"/>
			<point x="578" y="-13"/>
			<point x="739" y="99"/>
			<point x="739" y="282" type="curve" smooth="yes"/>
			<point x="739" y="396"/>
			<point x="663" y="485"/>
			<point x="527" y="485" type="curve" smooth="yes"/>
			<point x="455" y="485"/>
			<point x="375" y="459"/>
			<point x="337" y="428" type="curve"/>
			<point x="360" y="554" type="line"/>
			<point x="113" y="554" type="line"/>
			<point x="91" y="433" type="line"/>
			<point x="205" y="433" type="line"/>
			<point x="168" y="232" type="line" smooth="yes"/>
			<point x="165" y="215"/>
			<point x="163" y="198"/>
		</contour>
		<contour>
			<point x="299" y="208" type="curve" smooth="yes"/>
			<point x="299" y="304"/>
			<point x="391" y="363"/>
			<point x="480" y="363" type="curve" smooth="yes"/>
			<point x="547" y="363"/>
			<point x="602" y="329"/>
			<point x="602" y="256" type="curve" smooth="yes"/>
			<point x="602" y="161"/>
			<point x="520" y="109"/>
			<point x="432" y="109" type="curve" smooth="yes"/>
			<point x="357" y="109"/>
			<point x="299" y="144"/>
		</contour>
	</outline>
</glyph>
<glyph name="ishortcyr.loclBGR" format="2">
	<advance width="599"/>
	<outline>
		<component base="u"/>
		<contour>
			<point x="281" y="746" type="line"/>
			<point x="281" y="660"/>
			<point x="327" y="616"/>
			<point x="422" y="616" type="curve" smooth="yes"/>
			<point x="513" y="616"/>
			<point x="579" y="656"/>
			<point x="611" y="746" type="curve"/>
			<point x="510" y="746" type="line"/>
			<point x="501" y="696"/>
			<point x="478" y="675"/>
			<point x="433" y="675" type="curve" smooth="yes"/>
			<point x="400" y="675"/>
			<point x="382" y="696"/>
			<point x="382" y="746" type="curve"/>
		</contour>
	</outline>
</glyph>
<glyph name="pecyr.loclSRB" format="2">
  <advance width="599"/>
  <outline>
    <component base="u"/>
    <contour>
      <point x="184" y="648" type="line"/>
      <point x="641" y="648" type="line"/>
      <point x="660" y="748" type="line"/>
      <point x="203" y="748" type="line"/>
    </contour>
  </outline>
</glyph>
<glyph name="shacyr.loclBGR" format="2">
  <advance width="937"/>
  <outline>
    <contour>
      <point x="155" y="554" type="line"/>
      <point x="96" y="234" type="line" smooth="yes"/>
      <point x="91" y="206"/>
      <point x="88" y="180"/>
      <point x="88" y="156" type="curve" smooth="yes"/>
      <point x="88" y="41"/>
      <point x="159" y="-13"/>
      <point x="275" y="-13" type="curve" smooth="yes"/>
      <point x="353" y="-13"/>
      <point x="412" y="13"/>
      <point x="468" y="73" type="curve"/>
      <point x="495" y="12"/>
      <point x="538" y="-13"/>
      <point x="615" y="-13" type="curve" smooth="yes"/>
      <point x="680" y="-13"/>
      <point x="723" y="5"/>
      <point x="771" y="52" type="curve"/>
      <point x="761" y="0" type="line"/>
      <point x="883" y="0" type="line"/>
      <point x="988" y="554" type="line"/>
      <point x="855" y="554" type="line"/>
      <point x="804" y="281" type="line" smooth="yes"/>
      <point x="789" y="198"/>
      <point x="766" y="109"/>
      <point x="663" y="109" type="curve" smooth="yes"/>
      <point x="606" y="109"/>
      <point x="576" y="136"/>
      <point x="576" y="192" type="curve" smooth="yes"/>
      <point x="576" y="208"/>
      <point x="578" y="227"/>
      <point x="582" y="250" type="curve" smooth="yes"/>
      <point x="638" y="554" type="line"/>
      <point x="505" y="554" type="line"/>
      <point x="454" y="281" type="line" smooth="yes"/>
      <point x="439" y="199"/>
      <point x="410" y="109"/>
      <point x="309" y="109" type="curve" smooth="yes"/>
      <point x="256" y="109"/>
      <point x="225" y="138"/>
      <point x="225" y="190" type="curve" smooth="yes"/>
      <point x="225" y="206"/>
      <point x="227" y="226"/>
      <point x="232" y="250" type="curve" smooth="yes"/>
      <point x="288" y="554" type="line"/>
    </contour>
  </outline>
</glyph>
<glyph name="shchacyr.loclBGR" format="2">
	<advance width="994"/>
	<outline>
		<contour>
			<point x="156" y="554" type="line"/>
			<point x="97" y="234" type="line" smooth="yes"/>
			<point x="92" y="206"/>
			<point x="89" y="180"/>
			<point x="89" y="156" type="curve" smooth="yes"/>
			<point x="89" y="40"/>
			<point x="158" y="-13"/>
			<point x="276" y="-13" type="curve" smooth="yes"/>
			<point x="354" y="-13"/>
			<point x="413" y="13"/>
			<point x="469" y="73" type="curve"/>
			<point x="496" y="12"/>
			<point x="539" y="-13"/>
			<point x="616" y="-13" type="curve" smooth="yes"/>
			<point x="681" y="-13"/>
			<point x="724" y="5"/>
			<point x="772" y="52" type="curve"/>
			<point x="762" y="0" type="line"/>
			<point x="841" y="0" type="line"/>
			<point x="818" y="-126" type="line"/>
			<point x="951" y="-126" type="line"/>
			<point x="997" y="121" type="line"/>
			<point x="908" y="121" type="line"/>
			<point x="988" y="554" type="line"/>
			<point x="855" y="554" type="line"/>
			<point x="804" y="281" type="line" smooth="yes"/>
			<point x="789" y="198"/>
			<point x="766" y="109"/>
			<point x="663" y="109" type="curve" smooth="yes"/>
			<point x="607" y="109"/>
			<point x="575" y="135"/>
			<point x="575" y="190" type="curve" smooth="yes"/>
			<point x="575" y="206"/>
			<point x="578" y="226"/>
			<point x="582" y="250" type="curve" smooth="yes"/>
			<point x="638" y="554" type="line"/>
			<point x="505" y="554" type="line"/>
			<point x="454" y="281" type="line" smooth="yes"/>
			<point x="439" y="199"/>
			<point x="411" y="109"/>
			<point x="310" y="109" type="curve" smooth="yes"/>
			<point x="255" y="109"/>
			<point x="226" y="139"/>
			<point x="226" y="192" type="curve" smooth="yes"/>
			<point x="226" y="208"/>
			<point x="229" y="227"/>
			<point x="233" y="250" type="curve" smooth="yes"/>
			<point x="289" y="554" type="line"/>
		</contour>
	</outline>
</glyph>
<glyph name="softcyr.loclBGR" format="2">
	<advance width="682"/>
	<outline>
		<contour>
			<point x="236" y="208" type="curve" smooth="yes"/>
			<point x="236" y="304"/>
			<point x="328" y="363"/>
			<point x="417" y="363" type="curve" smooth="yes"/>
			<point x="484" y="363"/>
			<point x="539" y="329"/>
			<point x="539" y="256" type="curve" smooth="yes"/>
			<point x="539" y="161"/>
			<point x="457" y="109"/>
			<point x="369" y="109" type="curve" smooth="yes"/>
			<point x="294" y="109"/>
			<point x="236" y="144"/>
		</contour>
		<contour>
			<point x="99" y="183" type="curve" smooth="yes"/>
			<point x="99" y="61"/>
			<point x="195" y="-13"/>
			<point x="341" y="-13" type="curve" smooth="yes"/>
			<point x="515" y="-13"/>
			<point x="675" y="99"/>
			<point x="675" y="282" type="curve" smooth="yes"/>
			<point x="675" y="396"/>
			<point x="599" y="485"/>
			<point x="464" y="485" type="curve" smooth="yes"/>
			<point x="392" y="485"/>
			<point x="312" y="459"/>
			<point x="274" y="428" type="curve"/>
			<point x="297" y="554" type="line"/>
			<point x="164" y="554" type="line"/>
			<point x="104" y="232" type="line" smooth="yes"/>
			<point x="101" y="215"/>
			<point x="99" y="198"/>
		</contour>
	</outline>
</glyph>
<glyph name="yacyr.loclBGR" format="2">
  <advance width="505"/>
  <outline>
    <contour>
      <point x="16" y="0" type="line"/>
      <point x="174" y="0" type="line"/>
      <point x="328" y="192" type="line"/>
      <point x="342" y="192" type="line"/>
      <point x="364" y="313" type="line"/>
      <point x="294" y="313" type="line" smooth="yes"/>
      <point x="256" y="313"/>
      <point x="238" y="334"/>
      <point x="238" y="363" type="curve" smooth="yes"/>
      <point x="238" y="403"/>
      <point x="273" y="433"/>
      <point x="312" y="433" type="curve" smooth="yes"/>
      <point x="403" y="433" type="line"/>
      <point x="323" y="0" type="line"/>
      <point x="456" y="0" type="line"/>
      <point x="560" y="554" type="line"/>
      <point x="337" y="554" type="line" smooth="yes"/>
      <point x="217" y="554"/>
      <point x="101" y="465"/>
      <point x="101" y="340" type="curve" smooth="yes"/>
      <point x="101" y="283"/>
      <point x="129" y="236"/>
      <point x="192" y="203" type="curve"/>
    </contour>
  </outline>
</glyph>
<glyph name="yucyr.loclBGR" format="2">
	<advance width="871"/>
	<outline>
		<contour>
			<point x="54" y="0" type="line"/>
			<point x="187" y="0" type="line"/>
			<point x="228" y="219" type="line"/>
			<point x="293" y="219" type="line"/>
			<point x="295" y="85"/>
			<point x="397" y="-17"/>
			<point x="542" y="-17" type="curve" smooth="yes"/>
			<point x="723" y="-17"/>
			<point x="899" y="145"/>
			<point x="899" y="329" type="curve" smooth="yes"/>
			<point x="899" y="466"/>
			<point x="798" y="571"/>
			<point x="653" y="571" type="curve" smooth="yes"/>
			<point x="508" y="571"/>
			<point x="370" y="473"/>
			<point x="316" y="340" type="curve"/>
			<point x="250" y="340" type="line"/>
			<point x="324" y="739" type="line"/>
			<point x="191" y="739" type="line"/>
		</contour>
		<contour>
			<point x="429" y="244" type="curve" smooth="yes"/>
			<point x="429" y="346"/>
			<point x="521" y="449"/>
			<point x="625" y="449" type="curve" smooth="yes"/>
			<point x="707" y="449"/>
			<point x="763" y="390"/>
			<point x="763" y="310" type="curve" smooth="yes"/>
			<point x="763" y="205"/>
			<point x="671" y="105"/>
			<point x="564" y="105" type="curve" smooth="yes"/>
			<point x="485" y="105"/>
			<point x="429" y="165"/>
		</contour>
	</outline>
</glyph>
<glyph name="zecyr.loclBGR" format="2">
	<advance width="570"/>
	<outline>
		<contour>
			<point x="33" y="-17" type="line"/>
			<point x="33" y="-128"/>
			<point x="121" y="-197"/>
			<point x="245" y="-197" type="curve" smooth="yes"/>
			<point x="401" y="-197"/>
			<point x="541" y="-80"/>
			<point x="541" y="81" type="curve" smooth="yes"/>
			<point x="541" y="139"/>
			<point x="513" y="197"/>
			<point x="451" y="222" type="curve"/>
			<point x="523" y="255"/>
			<point x="560" y="328"/>
			<point x="560" y="406" type="curve" smooth="yes"/>
			<point x="560" y="495"/>
			<point x="490" y="568"/>
			<point x="354" y="568" type="curve" smooth="yes"/>
			<point x="278" y="568"/>
			<point x="131" y="523"/>
			<point x="91" y="362" type="curve"/>
			<point x="229" y="362" type="line"/>
			<point x="238" y="420"/>
			<point x="298" y="447"/>
			<point x="345" y="447" type="curve" smooth="yes"/>
			<point x="395" y="447"/>
			<point x="428" y="424"/>
			<point x="428" y="378" type="curve" smooth="yes"/>
			<point x="428" y="311"/>
			<point x="389" y="261"/>
			<point x="319" y="261" type="curve" smooth="yes"/>
			<point x="243" y="261" type="line"/>
			<point x="225" y="163" type="line"/>
			<point x="303" y="163" type="line" smooth="yes"/>
			<point x="368" y="163"/>
			<point x="407" y="123"/>
			<point x="407" y="67" type="curve" smooth="yes"/>
			<point x="407" y="-14"/>
			<point x="355" y="-75"/>
			<point x="270" y="-75" type="curve" smooth="yes"/>
			<point x="201" y="-75"/>
			<point x="161" y="-49"/>
			<point x="161" y="-17" type="curve"/>
		</contour>
	</outline>
</glyph>
